<?xml version="1.0" encoding="UTF-8" standalone="no"?>
<!-- Generator: Adobe Illustrator 18.1.0, SVG Export Plug-In . SVG Version: 6.00 Build 0)  -->

<svg
   xmlns:dc="http://purl.org/dc/elements/1.1/"
   xmlns:cc="http://creativecommons.org/ns#"
   xmlns:rdf="http://www.w3.org/1999/02/22-rdf-syntax-ns#"
   xmlns:svg="http://www.w3.org/2000/svg"
   xmlns="http://www.w3.org/2000/svg"
   xmlns:sodipodi="http://sodipodi.sourceforge.net/DTD/sodipodi-0.dtd"
   xmlns:inkscape="http://www.inkscape.org/namespaces/inkscape"
   version="1.1"
   id="Layer_1"
   x="0px"
   y="0px"
   viewBox="0 0 254.61 85.8"
   enable-background="new 0 0 595.3 841.9"
   xml:space="preserve"
   inkscape:version="0.48.3.1 r9886"
   width="100%"
   height="100%"
   sodipodi:docname="Autopro.svg"><metadata
   id="metadata27"><rdf:RDF><cc:Work
       rdf:about=""><dc:format>image/svg+xml</dc:format><dc:type
         rdf:resource="http://purl.org/dc/dcmitype/StillImage" /></cc:Work></rdf:RDF></metadata><defs
   id="defs25" /><sodipodi:namedview
   pagecolor="#ffffff"
   bordercolor="#666666"
   borderopacity="1"
   objecttolerance="10"
   gridtolerance="10"
   guidetolerance="10"
   inkscape:pageopacity="0"
   inkscape:pageshadow="2"
   inkscape:window-width="1608"
   inkscape:window-height="922"
   id="namedview23"
   showgrid="false"
   inkscape:zoom="3.1714398"
   inkscape:cx="116.27377"
   inkscape:cy="97.356271"
   inkscape:window-x="65"
   inkscape:window-y="24"
   inkscape:window-maximized="0"
   inkscape:current-layer="Layer_1" />
<g
   id="g3"
   transform="translate(-166.77468,-410.95667)">
	<path
   clip-rule="evenodd"
   d="m 180.7,413.2 h 227.6 c 6.6,0 11.9,4.9 11.9,10.8 v 61 c 0,6 -5.4,10.8 -11.9,10.8 H 180.7 c -6.6,0 -11.9,-4.9 -11.9,-10.8 v -61 c 0,-5.9 5.4,-10.8 11.9,-10.8 l 0,0 z"
   id="path5"
   inkscape:connector-curvature="0"
   style="fill:#ffffff;fill-rule:evenodd" />
	<path
   d="M 408.4,497.4 H 180.7 c -7.4,0 -13.5,-5.6 -13.5,-12.4 v -61 c 0,-6.8 6.1,-12.4 13.5,-12.4 h 227.6 c 7.4,0 13.5,5.6 13.5,12.4 v 61 c 0.1,6.8 -6,12.4 -13.4,12.4 z M 180.7,414.8 c -5.7,0 -10.4,4.2 -10.4,9.3 V 485 c 0,5.1 4.6,9.3 10.4,9.3 h 227.6 c 5.7,0 10.4,-4.2 10.4,-9.3 v -61 c 0,-5.1 -4.6,-9.3 -10.4,-9.3 H 180.7 z"
   id="path7"
   inkscape:connector-curvature="0" />
</g>
<path
   clip-rule="evenodd"
   d="m 22.125318,70.143326 h 1.1 c 0.5,0 1,-0.1 1.3,-0.3 0.3,-0.2 0.5,-0.5 0.5,-0.9 0,-0.4 -0.1,-0.7 -0.4,-0.9 -0.3,-0.2 -0.6,-0.3 -1.1,-0.3 h -1.3 v 2.4 l -0.1,0 z m -4.1,7 v -12 h 5.7 c 0.9,0 1.6,0 2.2,0.1 0.6,0.1 1.1,0.3 1.5,0.5 0.6,0.4 1.1,0.8 1.4,1.3 0.3,0.5 0.5,1.2 0.5,1.8 0,1.1 -0.4,2.1 -1.3,2.8 -0.9,0.7 -2,1.1 -3.5,1.1 h -2.4 v 4.4 h -4.1 l 0,0 z m 9.9,0 4.1,-12 h 4.3 l 4.2,12 h -4.3 l -0.8,-2.4 h -3.6 l -0.7,2.4 h -3.2 l 0,0 z m 4.7,-5 h 2.2 l -1.1,-3.5 -1.1,3.5 0,0 z m 8.8,5 v -12 h 6.5 c 1.7,0 3,0.3 3.9,0.9 0.9,0.6 1.3,1.5 1.3,2.6 0,0.8 -0.2,1.5 -0.6,2.1 -0.4,0.6 -1,1 -1.7,1.2 l 2.4,5.3 h -4.4 l -2,-4.6 h -1.4 v 4.6 h -4 l 0,-0.1 z m 5.9,-9.5 h -1.9 v 2.4 h 1.9 c 0.5,0 0.9,-0.1 1.2,-0.3 0.3,-0.2 0.5,-0.5 0.5,-0.8 0,-0.4 -0.1,-0.7 -0.4,-0.9 -0.4,-0.3 -0.8,-0.4 -1.3,-0.4 l 0,0 z m 13.3,0.2 v 9.2 h -4.1 v -9.2 h -2.6 v -2.8 h 9.3 v 2.8 h -2.6 l 0,0 z m 3.1,5.8 3.7,-0.6 c 0.1,0.5 0.4,0.9 0.8,1.1 0.4,0.2 1,0.4 1.7,0.4 0.4,0 0.8,-0.1 1.1,-0.2 0.3,-0.2 0.4,-0.4 0.4,-0.6 0,-0.5 -0.6,-0.8 -1.7,-1.1 -0.4,-0.1 -0.7,-0.2 -1,-0.2 -1.6,-0.4 -2.7,-0.8 -3.4,-1.4 -0.7,-0.6 -1,-1.3 -1,-2.2 0,-1.2 0.5,-2.1 1.6,-2.9 1,-0.7 2.4,-1.1 4.2,-1.1 1.3,0 2.4,0.3 3.3,0.8 0.9,0.5 1.6,1.3 2,2.2 l -3.4,0.9 c -0.2,-0.4 -0.5,-0.7 -0.8,-0.9 -0.3,-0.2 -0.8,-0.3 -1.3,-0.3 -0.4,0 -0.7,0.1 -1,0.3 -0.3,0.2 -0.4,0.4 -0.4,0.6 0,0.4 0.6,0.7 1.7,0.9 0.3,0.1 0.5,0.1 0.7,0.2 0.1,0 0.3,0.1 0.5,0.1 1.4,0.3 2.5,0.7 3.1,1.1 0.4,0.3 0.7,0.7 1,1.1 0.2,0.4 0.3,0.9 0.3,1.5 0,0.5 -0.1,1 -0.3,1.5 -0.2,0.5 -0.5,0.9 -1,1.2 -0.5,0.5 -1.2,0.8 -2,1.1 -0.8,0.2 -1.6,0.4 -2.5,0.4 -1.7,0 -3,-0.3 -4.1,-1 -1.2,-0.8 -1.9,-1.7 -2.2,-2.9 l 0,0 z m 23.5,-3.5 h 1.1 c 0.5,0 1,-0.1 1.3,-0.3 0.3,-0.2 0.5,-0.5 0.5,-0.9 0,-0.4 -0.1,-0.7 -0.4,-0.9 -0.3,-0.2 -0.6,-0.3 -1.1,-0.3 h -1.4 v 2.4 l 0,0 z m -4.1,7 v -12 h 5.7 c 0.9,0 1.6,0 2.2,0.1 0.6,0.1 1.1,0.3 1.5,0.5 0.6,0.4 1.1,0.8 1.4,1.3 0.3,0.5 0.5,1.2 0.5,1.8 0,1.1 -0.4,2.1 -1.3,2.8 -0.9,0.7 -2,1.1 -3.5,1.1 h -2.4 v 4.4 h -4.1 l 0,0 z m 12.6,0 v -12 h 6.500002 c 1.7,0 3,0.3 3.9,0.9 0.9,0.6 1.3,1.5 1.3,2.6 0,0.8 -0.2,1.5 -0.6,2.1 -0.4,0.6 -1,1 -1.7,1.2 l 2.4,5.3 h -4.4 l -2,-4.6 h -1.400002 v 4.6 h -4 l 0,-0.1 z m 5.900002,-9.5 h -1.900002 v 2.4 h 1.900002 c 0.5,0 0.9,-0.1 1.2,-0.3 0.3,-0.2 0.5,-0.5 0.5,-0.8 0,-0.4 -0.1,-0.7 -0.4,-0.9 -0.3,-0.3 -0.7,-0.4 -1.3,-0.4 l 0,0 z m 13.1,6.9 c 0.7,0 1.1,-0.3 1.5,-0.9 0.3,-0.6 0.5,-1.4 0.5,-2.6 0,-1.1 -0.2,-2 -0.5,-2.5 -0.3,-0.6 -0.8,-0.9 -1.5,-0.9 -0.7,0 -1.2,0.3 -1.5,0.8 -0.3,0.6 -0.5,1.4 -0.5,2.6 0,1.2 0.2,2 0.5,2.6 0.3,0.6 0.8,0.9 1.5,0.9 l 0,0 z m 0,2.8 c -0.8,0 -1.6,-0.1 -2.3,-0.4 -0.7,-0.2 -1.4,-0.6 -1.9,-1.1 -0.7,-0.6 -1.2,-1.3 -1.5,-2.1 -0.3,-0.8 -0.5,-1.7 -0.5,-2.7 0,-1 0.2,-1.9 0.5,-2.7 0.3,-0.8 0.9,-1.5 1.6,-2.1 0.5,-0.5 1.2,-0.8 1.9,-1.1 0.7,-0.2 1.5,-0.4 2.3,-0.4 0.9,0 1.6,0.1 2.4,0.4 0.7,0.2 1.3,0.6 1.9,1.1 0.7,0.6 1.2,1.3 1.5,2.1 0.3,0.8 0.5,1.7 0.5,2.7 0,1 -0.2,1.9 -0.5,2.8 -0.3,0.8 -0.8,1.5 -1.5,2.1 -0.6,0.5 -1.2,0.8 -1.9,1.1 -0.8,0.2 -1.6,0.3 -2.5,0.3 l 0,0 z m 8,-0.2 v -12 h 9.6 v 2.8 h -5.5 v 2 h 4.4 v 2.7 h -4.4 v 4.5 h -4.1 l 0,0 z m 10.9,0 v -12 h 10 v 2.8 h -6.1 v 1.8 h 5 v 2.6 h -5 v 2 h 6.2 v 2.8 h -10.1 l 0,0 z m 11.2,-3.5 3.7,-0.6 c 0.1,0.5 0.4,0.9 0.8,1.1 0.4,0.2 1,0.4 1.7,0.4 0.4,0 0.8,-0.1 1.1,-0.2 0.3,-0.2 0.4,-0.4 0.4,-0.6 0,-0.5 -0.6,-0.8 -1.7,-1.1 -0.4,-0.1 -0.7,-0.2 -1,-0.2 -1.6,-0.4 -2.7,-0.8 -3.4,-1.4 -0.7,-0.6 -1,-1.3 -1,-2.2 0,-1.2 0.5,-2.1 1.6,-2.9 1,-0.7 2.4,-1.1 4.2,-1.1 1.3,0 2.4,0.3 3.3,0.8 0.9,0.5 1.6,1.3 2,2.2 l -3.4,0.9 c -0.2,-0.4 -0.5,-0.7 -0.8,-0.9 -0.3,-0.2 -0.8,-0.3 -1.3,-0.3 -0.4,0 -0.7,0.1 -1,0.3 -0.3,0.2 -0.4,0.4 -0.4,0.6 0,0.4 0.6,0.7 1.7,0.9 0.3,0.1 0.5,0.1 0.7,0.2 0.1,0 0.3,0.1 0.5,0.1 1.4,0.3 2.5,0.7 3.1,1.1 0.4,0.3 0.7,0.7 1,1.1 0.2,0.4 0.3,0.9 0.3,1.5 0,0.5 -0.1,1 -0.3,1.5 -0.2,0.5 -0.5,0.9 -1,1.2 -0.5,0.5 -1.2,0.8 -2,1.1 -0.8,0.2 -1.6,0.4 -2.5,0.4 -1.7,0 -3,-0.3 -4.1,-1 -1.2,-0.8 -1.9,-1.7 -2.2,-2.9 l 0,0 z m 13,0 3.7,-0.6 c 0.1,0.5 0.4,0.9 0.8,1.1 0.4,0.2 1,0.4 1.7,0.4 0.4,0 0.8,-0.1 1.1,-0.2 0.3,-0.2 0.4,-0.4 0.4,-0.6 0,-0.5 -0.6,-0.8 -1.7,-1.1 -0.4,-0.1 -0.7,-0.2 -1,-0.2 -1.6,-0.4 -2.7,-0.8 -3.4,-1.4 -0.7,-0.6 -1,-1.3 -1,-2.2 0,-1.2 0.5,-2.1 1.6,-2.9 1,-0.7 2.4,-1.1 4.2,-1.1 1.3,0 2.4,0.3 3.3,0.8 0.9,0.5 1.6,1.3 2,2.2 l -3.4,0.9 c -0.2,-0.4 -0.5,-0.7 -0.8,-0.9 -0.3,-0.2 -0.8,-0.3 -1.3,-0.3 -0.4,0 -0.7,0.1 -1,0.3 -0.3,0.2 -0.4,0.4 -0.4,0.6 0,0.4 0.6,0.7 1.7,0.9 0.3,0.1 0.5,0.1 0.7,0.2 0.1,0 0.3,0.1 0.5,0.1 1.4,0.3 2.5,0.7 3.1,1.1 0.4,0.3 0.7,0.7 1,1.1 0.2,0.4 0.3,0.9 0.3,1.5 0,0.5 -0.1,1 -0.3,1.5 -0.2,0.5 -0.5,0.9 -1,1.2 -0.5,0.5 -1.2,0.8 -2,1.1 -0.8,0.2 -1.6,0.4 -2.5,0.4 -1.7,0 -3,-0.3 -4.1,-1 -1.2,-0.8 -1.8,-1.7 -2.2,-2.9 l 0,0 z m 13.6,3.5 v -12 h 4.2 v 12 h -4.2 l 0,0 z m 12.1,-2.6 c 0.7,0 1.2,-0.3 1.5,-0.9 0.3,-0.6 0.5,-1.4 0.5,-2.6 0,-1.1 -0.2,-2 -0.5,-2.5 -0.3,-0.6 -0.8,-0.9 -1.5,-0.9 -0.7,0 -1.2,0.3 -1.5,0.8 -0.3,0.6 -0.5,1.4 -0.5,2.6 0,1.2 0.2,2 0.5,2.6 0.3,0.6 0.8,0.9 1.5,0.9 l 0,0 z m 0,2.8 c -0.8,0 -1.6,-0.1 -2.3,-0.4 -0.7,-0.2 -1.4,-0.6 -1.9,-1.1 -0.7,-0.6 -1.2,-1.3 -1.5,-2.1 -0.3,-0.8 -0.5,-1.7 -0.5,-2.7 0,-1 0.2,-1.9 0.5,-2.7 0.3,-0.8 0.9,-1.5 1.6,-2.1 0.5,-0.5 1.2,-0.8 1.9,-1.1 0.7,-0.2 1.5,-0.4 2.3,-0.4 0.9,0 1.6,0.1 2.4,0.4 0.7,0.2 1.3,0.6 1.9,1.1 0.7,0.6 1.2,1.3 1.5,2.1 0.3,0.8 0.5,1.7 0.5,2.7 0,1 -0.2,1.9 -0.5,2.8 -0.3,0.8 -0.8,1.5 -1.5,2.1 -0.6,0.5 -1.2,0.8 -1.9,1.1 -0.8,0.2 -1.6,0.3 -2.5,0.3 l 0,0 z m 8,-0.2 v -12 h 3.8 l 4.3,6.3 -0.2,-6.3 h 3.4 v 12 h -3.3 l -4.8,-7.3 0.2,7.3 h -3.4 l 0,0 z m 12.2,0 4.1,-12 h 4.3 l 4.2,12 h -4.2 l -0.8,-2.4 h -3.6 l -0.7,2.4 h -3.3 l 0,0 z m 4.7,-5 h 2.2 l -1.1,-3.5 -1.1,3.5 0,0 z m 8.8,5 v -12 h 4.1 v 9.2 h 5.2 v 2.8 h -9.3 l 0,0 z m 9.4,-3.5 3.7,-0.6 c 0.1,0.5 0.4,0.9 0.8,1.1 0.4,0.2 1,0.4 1.7,0.4 0.4,0 0.8,-0.1 1.1,-0.2 0.3,-0.2 0.4,-0.4 0.4,-0.6 0,-0.5 -0.6,-0.8 -1.7,-1.1 -0.4,-0.1 -0.7,-0.2 -1,-0.2 -1.6,-0.4 -2.7,-0.8 -3.4,-1.4 -0.7,-0.6 -1,-1.3 -1,-2.2 0,-1.2 0.5,-2.1 1.6,-2.9 1,-0.7 2.4,-1.1 4.2,-1.1 1.3,0 2.4,0.3 3.3,0.8 0.9,0.5 1.6,1.3 2,2.2 l -3.4,0.9 c -0.2,-0.4 -0.5,-0.7 -0.8,-0.9 -0.3,-0.2 -0.8,-0.3 -1.3,-0.3 -0.4,0 -0.7,0.1 -1,0.3 -0.3,0.2 -0.4,0.4 -0.4,0.6 0,0.4 0.6,0.7 1.7,0.9 0.3,0.1 0.5,0.1 0.7,0.2 0.1,0 0.3,0.1 0.5,0.1 1.4,0.3 2.5,0.7 3.1,1.1 0.4,0.3 0.7,0.7 1,1.1 0.2,0.4 0.3,0.9 0.3,1.5 0,0.5 -0.1,1 -0.3,1.5 -0.2,0.5 -0.5,0.9 -1,1.2 -0.5,0.5 -1.2,0.8 -2,1.1 -0.8,0.2 -1.6,0.4 -2.5,0.4 -1.7,0 -3,-0.3 -4.1,-1 -1.2,-0.8 -1.9,-1.7 -2.2,-2.9 l 0,0 z"
   id="path9"
   inkscape:connector-curvature="0"
   style="fill-rule:evenodd" />
<path
   clip-rule="evenodd"
   d="m 123.12532,24.143326 c 4.9,0 8.8,3.6 8.8,8 0,4.4 -4,8 -8.8,8 -4.9,0 -8.8,-3.6 -8.8,-8 -0.1,-4.4 3.9,-8 8.8,-8 l 0,0 z m 0,-11.4 c 11.8,0 21.4,8.7 21.4,19.5 0,10.7 -9.6,19.5 -21.4,19.5 -11.8,0 -21.4,-8.7 -21.4,-19.5 0,-10.8 9.6,-19.5 21.4,-19.5 l 0,0 z"
   id="path11"
   inkscape:connector-curvature="0"
   style="fill-rule:evenodd" />
<path
   clip-rule="evenodd"
   d="m 224.72532,12.743326 c 11.8,0 21.4,8.7 21.4,19.5 0,10.7 -9.6,19.5 -21.4,19.5 -11.8,0 -21.4,-8.7 -21.4,-19.5 0,-10.8 9.6,-19.5 21.4,-19.5 l 0,0 z m 0,11.4 c 4.9,0 8.8,3.6 8.8,8 0,4.4 -4,8 -8.8,8 -4.9,0 -8.8,-3.6 -8.8,-8 -0.1,-4.4 3.9,-8 8.8,-8 l 0,0 z m -92.9,36 c 8.3,-14.4 16.6,-28.9 25,-43.3 1.1,-1.9 2.6,-3.5 6,-3.5 4.6,0 9.3,0 13.9,0 4.3,0.7 5.4,2.9 5.6,5.7 0,8.5 0,17.1 0,25.6 -1.3,4.6 -4,4.5 -6.5,5 -5.7,0 -11.3,0 -17,0 0,-2.9 0,-5.8 0,-8.7 2.4,0 4.9,0 7.3,0 1.8,0 2.9,-0.8 3.3,-2.4 0,-5 -0.1,-10 -0.1,-15.1 -0.2,-1.6 -1.4,-1.8 -2.6,-0.4 -6,10.4 -12,20.8 -18.1,31.3 -0.4,0.7 -0.7,1.5 -1.1,2.2 -2.2,3 -5.1,3.8 -8.2,3.6 -2.4,0 -5,0 -7.5,0 l 0,0 z m 52.4,-47 v 36.2 h 13.1 c 0,-7.6 0,-15.2 0,-22.9 0.3,-2 0.9,-3.9 5.5,-4.4 1.3,0 2.7,0 4,0 0,-3 0,-5.9 0,-8.9 -3.3,-0.2 -6.5,0 -9.5,5 0,-1.7 0,-3.3 0,-5 -4.4,0 -8.7,0 -13.1,0 l 0,0 z"
   id="path13"
   inkscape:connector-curvature="0"
   style="fill:#ef3e33;fill-rule:evenodd" />
<path
   clip-rule="evenodd"
   d="m 243.52532,50.743326 v -2.7 h 1.3 c 0.3,0 0.5,0 0.6,0.1 0.1,0 0.2,0.1 0.3,0.3 0.1,0.1 0.1,0.3 0.1,0.4 0,0.2 -0.1,0.4 -0.2,0.5 -0.1,0.1 -0.3,0.2 -0.6,0.3 0.1,0 0.2,0.1 0.2,0.1 0.1,0.1 0.2,0.2 0.3,0.4 l 0.5,0.7 h -0.5 l -0.4,-0.6 c -0.1,-0.2 -0.2,-0.3 -0.3,-0.4 -0.1,-0.1 -0.1,-0.1 -0.2,-0.2 -0.1,0 -0.1,-0.1 -0.2,-0.1 0,0 -0.1,0 -0.2,0 h -0.5 v 1.2 h -0.2 l 0,0 z m 0.4,-1.5 h 0.8 c 0.2,0 0.3,0 0.4,-0.1 0.1,0 0.2,-0.1 0.2,-0.2 0.1,-0.1 0.1,-0.2 0.1,-0.2 0,-0.1 -0.1,-0.2 -0.2,-0.3 -0.1,-0.1 -0.3,-0.1 -0.5,-0.1 h -0.9 v 0.9 l 0.1,0 z"
   id="path15"
   inkscape:connector-curvature="0"
   style="fill-rule:evenodd" />
<path
   d="m 244.62532,51.843326 c -1.5,0 -2.7,-1.1 -2.7,-2.5 0,-1.4 1.2,-2.5 2.7,-2.5 1.5,0 2.7,1.1 2.7,2.5 0,1.4 -1.2,2.5 -2.7,2.5 z m 0,-4.6 c -1.3,0 -2.4,1 -2.4,2.1 0,1.2 1.1,2.1 2.4,2.1 1.3,0 2.4,-1 2.4,-2.1 -0.1,-1.2 -1.1,-2.1 -2.4,-2.1 z"
   id="path17"
   inkscape:connector-curvature="0" />
<path
   clip-rule="evenodd"
   d="m 81.625318,13.943326 v 9.2 h 4.8 c 0,7.1 0,14.1 0,21.2 0.6,4.6 3.6,5.8 7,6.5 3.8,0 7.700002,0 11.500002,0 0,-3.1 0,-6.1 0,-9.2 -0.7,0 -1.4,0 -2.1,0 -2.5,-0.1 -2.8,-1 -2.8,-2 v -16.5 h 4.9 v -9.1 H 99.925318 V 9.0433258 h -13.4 v 5.0000002 h -4.9 l 0,-0.1 z"
   id="path19"
   inkscape:connector-curvature="0"
   style="fill-rule:evenodd" />
<path
   clip-rule="evenodd"
   d="m 10.625318,13.943326 c 4.9,0 9.9,0 14.8,0 2.4,-0.2 4.6,1 7.3,3.9 4.9,8.6 9.9,17.1 14.8,25.7 0,-9.8 0,-19.6 0,-29.4 4.5,0 9.1,0 13.6,0 0,8.3 0,16.5 0,24.8 -0.5,3.4 5.1,3.6 5.5,0 0,-8.3 0,-16.6 0,-24.9 4.4,0 8.7,0 13.1,0 0,9 0,17.9 0,26.9 0.4,4.7 -1.7,8.4 -9,9.8 -4.9,0 -9.9,0 -14.8,0 -2.9,-0.4 -4.7,-1.2 -5.9,-2.2 2.4,4.2 5,8.9 7.4,13.1 -3.2,0 -6.4,0 -9.6,0 -3.3,-0.2 -6.2,-1.1 -8,-4.7 -2.5,-4.4 -5,-8.8 -7.5,-13.1 0,2.5 0,5 0,7.6 -6.1,0 -12.3,0 -18.4,0 -2.7,-0.5 -4.4,-2.2 -5,-5.1 0,-4.8 0,-9.6 0,-14.3 0.4,-2.1 1.5,-4.6 5.7,-5 2.8,0 4.9,0 7.7,0 -0.6,-1.1 -1.2,-2.1 -1.8,-3.2 -3.3,0 -6.6,0 -10,0 0.1,-3.5 0.1,-6.7 0.1,-9.9 l 0,0 z m 20.8,28 c -1.4,-2.4 -2.8,-5 -4.2,-7.4 -1.5,0 -2.9,0 -4.4,0 -1.2,0.1 -2.1,0.6 -2.2,2 0,1.2 0,2.5 0,3.7 -0.2,1.3 0.7,1.6 1.7,1.8 l 9.1,-0.1 0,0 z"
   id="path21"
   inkscape:connector-curvature="0"
   style="fill-rule:evenodd" />
</svg>