<?xml version="1.0" encoding="utf-8"?>
<!-- Generator: Adobe Illustrator 18.1.1, SVG Export Plug-In . SVG Version: 6.00 Build 0)  -->
<svg version="1.1" id="Слой_1" xmlns="http://www.w3.org/2000/svg" xmlns:xlink="http://www.w3.org/1999/xlink" x="0px" y="0px"
	 viewBox="0 0 184.4 79" enable-background="new 0 0 184.4 79" xml:space="preserve">
<g>
	<g>
		<g>
			<path fill="#E6E6E6" d="M27.9,21.3c-0.3,0-0.6-0.1-0.9-0.2l-13-7.4c-0.9-0.5-1.2-1.6-0.7-2.5c0.5-0.9,1.6-1.2,2.5-0.7l13,7.4
				c0.9,0.5,1.2,1.6,0.7,2.5C29.2,20.9,28.6,21.3,27.9,21.3"/>
			<path fill="#E6E6E6" d="M65.2,21.3c-0.6,0-1.3-0.3-1.6-0.9c-0.5-0.9-0.2-2,0.7-2.5l13-7.4c0.9-0.5,2-0.2,2.5,0.7
				c0.5,0.9,0.2,2-0.7,2.5l-13,7.4C65.8,21.2,65.5,21.3,65.2,21.3"/>
		</g>
		<path fill="#FFCC5C" d="M88.4,13.8H9.4c-1.1,0-1.9-0.9-1.9-1.9V2.7c0-1.1,0.9-1.9,1.9-1.9h65.1L89,12.1
			C89.8,12.7,89.4,13.8,88.4,13.8"/>
		<path fill="#5B5B5B" d="M31.7,67.8c0,6.2-5,11.2-11.2,11.2S9.3,74,9.3,67.8s5-11.2,11.2-11.2S31.7,61.7,31.7,67.8"/>
		<path fill="#B2B2B2" d="M24.2,67.8c0,2.1-1.7,3.7-3.7,3.7s-3.7-1.7-3.7-3.7s1.7-3.7,3.7-3.7S24.2,65.8,24.2,67.8"/>
		<path fill="#5B5B5B" d="M98.7,67.8c0,6.2-5,11.2-11.2,11.2s-11.2-5-11.2-11.2s5-11.2,11.2-11.2C93.7,56.7,98.7,61.7,98.7,67.8"/>
		<path fill="#B2B2B2" d="M91.2,67.8c0,2.1-1.7,3.7-3.7,3.7c-2.1,0-3.7-1.7-3.7-3.7s1.7-3.7,3.7-3.7C89.6,64.1,91.2,65.8,91.2,67.8"
			/>
		<path fill="#EE705C" d="M82.3,35.1l-6.4-10.4c-2-3.3-5.6-5.3-9.4-5.3H28.5c-3.8,0-7.4,2-9.4,5.3L9.9,39.8
			c-1.5,2.4-4.1,3.9-6.9,3.9H2.9c-1.6,0-2.9,1.3-2.9,2.8c0,4.1,0,11.8,0,16.7c0,2.6,2.1,4.6,4.7,4.6h4.7c0-6.2,5-11.2,11.2-11.2
			s11.2,5,11.2,11.2h44.7c0-6.2,5-11.2,11.2-11.2s11.2,5,11.2,11.2h3.6c3.1,0,5.7-2.5,5.7-5.7V46.5c0-1.6-1.3-2.8-2.8-2.8h-7.7
			C91.3,43.6,85.5,40.4,82.3,35.1"/>
		<path fill="#E6E6E6" d="M82.3,35.1l-5.1-8.3H27.6c-0.9,0-1.5,0.7-1.5,1.5v8.1c0,0.9,0.7,1.5,1.5,1.5h57
			C83.7,37.1,82.9,36.2,82.3,35.1"/>
		<path fill="#5B5B5B" d="M52.1,38h3.7V26.9h-3.7L52.1,38L52.1,38z"/>
		<g>
			<path fill="#C64533" d="M63.3,49.2H54c-1,0-1.9-0.8-1.9-1.9c0-1,0.8-1.9,1.9-1.9h9.3c1,0,1.9,0.8,1.9,1.9
				C65.2,48.4,64.3,49.2,63.3,49.2"/>
			<path fill="#C64533" d="M63.3,52.9c-1,0-1.9-0.8-1.9-1.9v-3.7c0-1,0.8-1.9,1.9-1.9c1,0,1.9,0.8,1.9,1.9v3.7
				C65.2,52.1,64.3,52.9,63.3,52.9"/>
			<path fill="#C64533" d="M108,51.1h-7.4c-1,0-1.9,0.8-1.9,1.9c0,1,0.8,1.9,1.9,1.9h7.4V51.1z"/>
			<path fill="#C64533" d="M7.5,51.1H0c0,1.2,0,2.4,0,3.7h7.4c1,0,1.9-0.8,1.9-1.9C9.3,51.9,8.5,51.1,7.5,51.1"/>
		</g>
	</g>
	<path fill="#1C5BC9" d="M131.5,37L131.5,37c10.2,0,18.5-8.3,18.5-18.5v0C150,8.3,141.7,0,131.5,0h0C121.3,0,113,8.3,113,18.5v0
		c0,5.3,1,17.5,1,17.5S126.6,37,131.5,37z"/>
	<text transform="matrix(1 0 0 1 118.022 26.4717)" fill="#FFFFFF" font-family="'OpenSans-Bold'" font-size="21.2178">+1</text>
	<path fill="#1C5BC9" d="M142.9,49.8c-0.4-0.5,3.4-7.9-1.6-10.8c-1.2-0.7-1.7,6-4.5,10.1c-1.6,2.2-5.3,7.1-4.6,8.8l4.1,10.8
		c0.8,2,9.3,1.2,15.2-1.1c2.2-0.8,0.1-15.6-0.7-17.7C150,47.7,143.3,50.3,142.9,49.8z M129.3,55.2c-1,0.4-4.5,2.5-2.8,6.7l2.9,7.7
		c1.7,4.3,5.5,3.4,6.6,3c1-0.4-1.9-0.3-2.9-3l-3.9-10.1C128.1,56.8,130.3,54.8,129.3,55.2z"/>
	<g>
		<path fill="#1C5BC9" d="M182.7,27.8c-2.5-3-7.2-3.7-10.4-1.5l-2.2,1.5l-1.7-2.1c-2.5-3-7.2-3.7-10.4-1.5
			c-3.7,2.5-4.3,7.3-1.5,10.8l10.8,13.1l14-9.6C184.8,36,185.5,31.2,182.7,27.8z"/>
	</g>
</g>
</svg>
