<?xml version="1.0" encoding="utf-8"?>
<!-- Generator: Adobe Illustrator 18.1.1, SVG Export Plug-In . SVG Version: 6.00 Build 0)  -->
<svg version="1.1" id="Слой_1" xmlns="http://www.w3.org/2000/svg" xmlns:xlink="http://www.w3.org/1999/xlink" x="0px" y="0px"
	 viewBox="0 0 201 95.6" enable-background="new 0 0 201 95.6" xml:space="preserve">
<g>
	<ellipse fill="#889E9C" cx="144.1" cy="93" rx="44.4" ry="2.6"/>
	<path fill="#237EB5" d="M157.2,52.2c0,2.1-1.7,3.7-3.7,3.7h-18.5c-2.1,0-3.7-1.7-3.7-3.7l0,0c0-2.1,1.7-3.7,3.7-3.7h18.5
		C155.5,48.3,157.2,50,157.2,52.2L157.2,52.2z"/>
	<path fill="#339DD1" d="M125.6,64.8c0,1.3-1.1,2.4-2.4,2.4h-2.2c-1.3,0-2.4-1.1-2.4-2.4l0,0c0-1.3,1.1-2.4,2.4-2.4h2.2
		C124.5,62.3,125.6,63.4,125.6,64.8L125.6,64.8z"/>
	<path fill="#237EB5" d="M125.6,64.8L125.6,64.8c0,1.3-1.1,2.4-2.4,2.4h-2.2c-1.3,0-2.4-1.1-2.4-2.4l0,0"/>
	<path fill="#339DD1" d="M162.6,64.8c0,1.3,1.1,2.4,2.4,2.4h2.2c1.3,0,2.4-1.1,2.4-2.4l0,0c0-1.3-1.1-2.4-2.4-2.4h-2.2
		C163.8,62.3,162.6,63.4,162.6,64.8L162.6,64.8z"/>
	<path fill="#237EB5" d="M162.6,64.8L162.6,64.8c0,1.3,1.1,2.4,2.4,2.4h2.2c1.3,0,2.4-1.1,2.4-2.4l0,0"/>
	<polygon fill="#13709E" points="166,71.9 122.2,71.9 130.1,53 158.1,53 	"/>
	<polygon fill="#A4E6F7" points="163.8,71.9 124.5,71.9 131.6,53 156.6,53 	"/>
	<polygon fill="#7DCEEA" points="163.8,71.9 124.5,71.9 135.5,56.1 156.6,53 	"/>
	<polyline fill="#58ADC4" points="156.6,53 163.8,71.9 124.5,71.9 	"/>
	<path fill="#13709E" d="M155.1,66.1c0,1.5-1.3,2.8-2.8,2.8h-16.5c-1.5,0-2.8-1.3-2.8-2.8v-2.8c0-1.5,1.3-2.8,2.8-2.8h16.5
		c1.5,0,2.8,1.3,2.8,2.8V66.1z"/>
	<path fill="#768689" d="M153.3,66.4c0,1.3-1.1,2.2-2.2,2.2h-13.7c-1.3,0-2.2-1.1-2.2-2.2V64c0-1.3,1.1-2.2,2.2-2.2H151
		c1.3,0,2.2,1.1,2.2,2.2V66.4z"/>
	<path fill="#8BA1A5" d="M153.3,67.6c0,1.3-1.1,2.2-2.2,2.2h-13.7c-1.3,0-2.2-1.1-2.2-2.2v-2.4c0-1.3,1.1-2.2,2.2-2.2H151
		c1.3,0,2.2,1.1,2.2,2.2V67.6z"/>
	<path fill="#516768" d="M155.5,84.8c0,1.1-0.9,2.1-2.1,2.1h-18.7c-1.1,0-2.1-0.9-2.1-2.1l0,0c0-1.1,0.9-2.1,2.1-2.1h18.7
		C154.6,82.7,155.5,83.7,155.5,84.8L155.5,84.8z"/>
	<g>
		<path fill="#6B7D7F" d="M132.5,86.3c0,1.5-1.1,2.6-2.6,2.6l0,0c-1.5,0-2.6-1.1-2.6-2.6v-3.6c0-1.5,1.1-2.6,2.6-2.6l0,0
			c1.5,0,2.6,1.1,2.6,2.6V86.3z"/>
		<path fill="#6B7D7F" d="M135.1,85.2c0,1.5-1.1,2.6-2.6,2.6l0,0c-1.5,0-2.6-1.1-2.6-2.6v-3.6c0-1.5,1.1-2.6,2.6-2.6l0,0
			c1.5,0,2.6,1.1,2.6,2.6V85.2z"/>
		<path fill="#6B7D7F" d="M155.7,86.3c0,1.5,1.1,2.6,2.6,2.6l0,0c1.5,0,2.6-1.1,2.6-2.6v-3.6c0-1.5-1.1-2.6-2.6-2.6l0,0
			c-1.5,0-2.6,1.1-2.6,2.6V86.3z"/>
		<path fill="#6B7D7F" d="M153.1,85.2c0,1.5,1.1,2.6,2.6,2.6l0,0c1.5,0,2.6-1.1,2.6-2.6v-3.6c0-1.5-1.1-2.6-2.6-2.6l0,0
			c-1.5,0-2.6,1.1-2.6,2.6V85.2z"/>
	</g>
	<path fill="#333232" d="M128.6,92.8c0,3-2.4,2.8-5.4,2.8l0,0c-3,0-5.4-2.4-5.4-5.4v-11c0-3,2.4-5.4,5.4-5.4l0,0
		c3,0,5.4,2.4,5.4,5.4V92.8z"/>
	<path fill="#0A0A0A" d="M123.3,73.9L123.3,73.9c3,0,5.4,2.4,5.4,5.4v13.5c0,3-2.4,2.8-5.4,2.8l0,0"/>
	<path fill="#333232" d="M159.6,92.8c0,3,2.4,2.8,5.4,2.8l0,0c3,0,5.4-2.4,5.4-5.4v-11c0-3-2.4-5.4-5.4-5.4l0,0
		c-3,0-5.4,2.4-5.4,5.4V92.8z"/>
	<path fill="#0A0A0A" d="M164.9,73.9L164.9,73.9c-3,0-5.4,2.4-5.4,5.4v13.5c0,3,2.4,2.8,5.4,2.8l0,0"/>
	<path fill="#339DD1" d="M120.9,71.7c-2.2,0.2-4.1,2.1-4.1,4.5v9.5h4.1V71.7z"/>
	<polyline fill="#13709E" points="116.8,85.7 120.9,85.7 120.9,71.7 	"/>
	<path fill="#339DD1" d="M167.3,71.7c2.2,0.2,4.1,2.1,4.1,4.5v9.5h-4.1V71.7z"/>
	<polyline fill="#13709E" points="171.4,85.7 167.3,85.7 167.3,71.7 	"/>
	<g>
		<circle fill="#768689" cx="137" cy="65.9" r="0.4"/>
		<circle fill="#768689" cx="139.1" cy="65.9" r="0.4"/>
		<circle fill="#768689" cx="141.1" cy="65.9" r="0.4"/>
		<circle fill="#768689" cx="143.2" cy="65.9" r="0.4"/>
		<circle fill="#768689" cx="145" cy="65.9" r="0.4"/>
		<circle fill="#768689" cx="147.1" cy="65.9" r="0.4"/>
		<circle fill="#768689" cx="149.2" cy="65.9" r="0.4"/>
		<circle fill="#768689" cx="151.2" cy="65.9" r="0.4"/>
	</g>
	<path fill="#237EB5" d="M168.2,81v-7.3c0-4.3-3.4-7.7-7.7-7.7h-32.9c-4.3,0-7.7,3.4-7.7,7.7V81H168.2z"/>
	<polyline fill="#13709E" points="120,73.7 120,81 168.2,81 168.2,73.7 	"/>
	<path fill="#768689" d="M166.9,74.5c0,2.6,0.2,4.9-2.4,4.9h-39.9c-2.6,0-3.4-2.2-3.4-4.9l0,0c0-2.6,2.2-4.9,4.9-4.9h35.9
		C164.7,69.6,166.9,71.9,166.9,74.5L166.9,74.5z"/>
	<path fill="#ACC1C6" d="M162.1,70.7h-35.9c-2.6,0-4.7,2.1-4.9,4.5c0.2,2.2,0.7,4.1,3.2,4.1h39.7c2.2,0,2.4-1.5,2.4-3.7l0,0
		C166.9,72.8,164.7,70.7,162.1,70.7z"/>
	<path fill="#8BA1A5" d="M121.3,75.2c0.2,2.2,0.7,4.1,3.2,4.1h39.7c2.2,0,2.4-1.5,2.4-3.7l0,0"/>
	<path fill="#768689" d="M130.3,74.5c0,1.9-1.5,4.5-3.4,4.5c-1.9,0-3.4-2.6-3.4-4.5s1.5-3.4,3.4-3.4
		C128.8,71.1,130.3,72.6,130.3,74.5z"/>
	<circle fill="#E9F4F2" cx="126.9" cy="74.5" r="3.4"/>
	<path fill="#D0EAE5" d="M126.9,71.1c1.9,0,3.4,1.5,3.4,3.4s-1.5,3.4-3.4,3.4"/>
	<g>
		
			<ellipse transform="matrix(-0.6798 0.7334 -0.7334 -0.6798 264.0877 30.5599)" fill="#FFFFFF" cx="125.4" cy="72.9" rx="1.7" ry="0.6"/>
		<circle fill="#FFFFFF" cx="124.6" cy="75.2" r="0.4"/>
		<circle fill="#FFFFFF" cx="125" cy="76.4" r="0.2"/>
	</g>
	<path fill="#768689" d="M164.7,74.5c0,1.9-1.5,4.5-3.4,4.5c-1.9,0-3.4-2.6-3.4-4.5s1.5-3.4,3.4-3.4
		C163.2,71.1,164.7,72.6,164.7,74.5z"/>
	<circle fill="#E9F4F2" cx="161.3" cy="74.5" r="3.4"/>
	<path fill="#D0EAE5" d="M161.3,71.1c1.9,0,3.4,1.5,3.4,3.4s-1.5,3.4-3.4,3.4"/>
	<g>
		
			<ellipse transform="matrix(-0.6801 0.7331 -0.7331 -0.6801 321.9537 5.3552)" fill="#FFFFFF" cx="159.8" cy="72.9" rx="1.7" ry="0.6"/>
		<circle fill="#FFFFFF" cx="159.1" cy="75.2" r="0.4"/>
		<circle fill="#FFFFFF" cx="159.5" cy="76.4" r="0.2"/>
	</g>
	<g>
		<path fill="#768689" d="M132.7,78.6c0,0.2-0.2,0.4-0.4,0.4l0,0c-0.2,0-0.4-0.2-0.4-0.4v-7.3c0-0.2,0.2-0.4,0.4-0.4l0,0
			c0.2,0,0.4,0.2,0.4,0.4V78.6z"/>
		<path fill="#768689" d="M134.7,78.6c0,0.2-0.2,0.4-0.4,0.4l0,0c-0.2,0-0.4-0.2-0.4-0.4v-7.3c0-0.2,0.2-0.4,0.4-0.4l0,0
			c0.2,0,0.4,0.2,0.4,0.4V78.6z"/>
		<path fill="#768689" d="M136.8,78.6c0,0.2-0.2,0.4-0.4,0.4l0,0c-0.2,0-0.4-0.2-0.4-0.4v-7.3c0-0.2,0.2-0.4,0.4-0.4l0,0
			c0.2,0,0.4,0.2,0.4,0.4V78.6z"/>
		<path fill="#768689" d="M138.7,78.6c0,0.2-0.2,0.4-0.4,0.4l0,0c-0.2,0-0.4-0.2-0.4-0.4v-7.3c0-0.2,0.2-0.4,0.4-0.4l0,0
			c0.2,0,0.4,0.2,0.4,0.4V78.6z"/>
		<path fill="#768689" d="M150.1,78.6c0,0.2-0.2,0.4-0.4,0.4l0,0c-0.2,0-0.4-0.2-0.4-0.4v-7.3c0-0.2,0.2-0.4,0.4-0.4l0,0
			c0.2,0,0.4,0.2,0.4,0.4V78.6z"/>
		<path fill="#768689" d="M152.2,78.6c0,0.2-0.2,0.4-0.4,0.4l0,0c-0.2,0-0.4-0.2-0.4-0.4v-7.3c0-0.2,0.2-0.4,0.4-0.4l0,0
			c0.2,0,0.4,0.2,0.4,0.4V78.6z"/>
		<path fill="#768689" d="M154.2,78.6c0,0.2-0.2,0.4-0.4,0.4l0,0c-0.2,0-0.4-0.2-0.4-0.4v-7.3c0-0.2,0.2-0.4,0.4-0.4l0,0
			c0.2,0,0.4,0.2,0.4,0.4V78.6z"/>
		<path fill="#768689" d="M156.3,78.6c0,0.2-0.2,0.4-0.4,0.4l0,0c-0.2,0-0.4-0.2-0.4-0.4v-7.3c0-0.2,0.2-0.4,0.4-0.4l0,0
			c0.2,0,0.4,0.2,0.4,0.4V78.6z"/>
	</g>
	<polygon fill="#E9F4F2" points="146.9,75.2 144.1,78 141.3,75.2 144.1,71.1 	"/>
	<polygon fill="#8BA1A5" points="145.8,75.1 144.1,76.7 142.4,75.1 144.1,72.6 	"/>
	<polygon fill="#ACC1C6" points="145.8,75.1 144.1,74.9 142.4,75.1 144.1,73.4 	"/>
	<path fill="#339DD1" d="M168.8,81.6c0,1.5-0.4,2.6-1.9,2.6h-45.7c-1.5,0-1.9-1.1-1.9-2.6l0,0c0-1.5,1.1-2.6,2.6-2.6h44
		C167.7,79,168.8,80.1,168.8,81.6L168.8,81.6z"/>
	<path fill="#237EB5" d="M168.8,81.6L168.8,81.6c0,1.5-0.4,2.6-1.9,2.6h-45.7c-1.5,0-1.9-1.1-1.9-2.6l0,0"/>
	<g>
		<circle fill="#768689" cx="137" cy="63.3" r="0.4"/>
		<circle fill="#768689" cx="139.1" cy="63.3" r="0.4"/>
		<circle fill="#768689" cx="141.1" cy="63.3" r="0.4"/>
		<circle fill="#768689" cx="143.2" cy="63.3" r="0.4"/>
		<circle fill="#768689" cx="145" cy="63.3" r="0.4"/>
		<circle fill="#768689" cx="147.1" cy="63.3" r="0.4"/>
		<circle fill="#768689" cx="149.2" cy="63.3" r="0.4"/>
		<circle fill="#768689" cx="151.2" cy="63.3" r="0.4"/>
		<circle fill="#768689" cx="137" cy="64.6" r="0.4"/>
		<circle fill="#768689" cx="139.1" cy="64.6" r="0.4"/>
		<circle fill="#768689" cx="141.1" cy="64.6" r="0.4"/>
		<circle fill="#768689" cx="143.2" cy="64.6" r="0.4"/>
		<circle fill="#768689" cx="145" cy="64.6" r="0.4"/>
		<circle fill="#768689" cx="147.1" cy="64.6" r="0.4"/>
		<circle fill="#768689" cx="149.2" cy="64.6" r="0.4"/>
		<circle fill="#768689" cx="151.2" cy="64.6" r="0.4"/>
	</g>
	<path fill="#339DD1" d="M158.5,52c0,0.7-0.7,1.5-1.5,1.5h-25.8c-0.7,0-1.5-0.7-1.5-1.5l0,0c0-0.7,0.6-1.5,1.5-1.5h26
		C158,50.5,158.5,51.3,158.5,52L158.5,52z"/>
	<path fill="#237EB5" d="M158.5,52L158.5,52c0,0.7-0.7,1.5-1.5,1.5h-25.8c-0.7,0-1.5-0.7-1.5-1.5l0,0"/>
	<g>
		<rect x="130.6" y="4.5" fill="#070707" width="27.1" height="7.5"/>
		<path fill="#070707" d="M103.3,44.2c0,0.7-0.6,1.3-1.3,1.3l0,0c-0.7,0-1.3-0.6-1.3-1.3V14.2c0-0.7,0.6-1.3,1.3-1.3l0,0
			c0.7,0,1.3,0.6,1.3,1.3V44.2z"/>
	</g>
	<path fill="#4D4F4B" d="M107,13.3c0,2.8-2.2,5.2-5.2,5.2l0,0c-2.8,0-5.2-2.2-5.2-5.2v-6c0-2.8,2.2-5.2,5.2-5.2l0,0
		c2.8,0,5.2,2.2,5.2,5.2V13.3z"/>
	<g>
		<path fill="#070707" d="M102,2.1L102,2.1c2.8,0,5.2,2.2,5.2,5.2v6c0,2.8-2.2,5.2-5.2,5.2l0,0"/>
		<ellipse fill="#070707" cx="102" cy="46.4" rx="3" ry="1.9"/>
	</g>
	<ellipse fill="#68B212" cx="102" cy="45.7" rx="14.8" ry="1.1"/>
	<path fill="#2E8C06" d="M102,44.5c8.2,0,14.8,0.6,14.8,1.1s-6.7,1.1-14.8,1.1"/>
	<ellipse fill="#070707" cx="102" cy="49.4" rx="3" ry="1.9"/>
	<ellipse fill="#68B212" cx="102" cy="48.7" rx="14.8" ry="1.1"/>
	<path fill="#2E8C06" d="M102,47.5c8.2,0,14.8,0.6,14.8,1.1s-6.6,1.1-14.8,1.1"/>
	<ellipse fill="#070707" cx="102" cy="52.6" rx="3" ry="1.9"/>
	<ellipse fill="#68B212" cx="102" cy="51.7" rx="14.8" ry="1.1"/>
	<path fill="#2E8C06" d="M102,50.7c8.2,0,14.8,0.6,14.8,1.1S110,53,102,53"/>
	<ellipse fill="#070707" cx="102" cy="55.6" rx="3" ry="1.9"/>
	<ellipse fill="#68B212" cx="102" cy="54.7" rx="14.8" ry="1.1"/>
	<path fill="#2E8C06" d="M102,53.7c8.2,0,14.8,0.6,14.8,1.1S110,56,102,56"/>
	<ellipse fill="#070707" cx="102" cy="58.6" rx="3" ry="1.9"/>
	<ellipse fill="#68B212" cx="102" cy="57.8" rx="14.8" ry="1.1"/>
	<path fill="#2E8C06" d="M102,56.7c8.2,0,14.8,0.6,14.8,1.1S110,59,102,59"/>
	<ellipse fill="#070707" cx="102" cy="61.6" rx="3" ry="1.9"/>
	<ellipse fill="#68B212" cx="102" cy="60.8" rx="14.8" ry="1.1"/>
	<path fill="#2E8C06" d="M102,59.7c8.2,0,14.8,0.6,14.8,1.1S110,62,102,62"/>
	<ellipse fill="#070707" cx="102" cy="64.8" rx="3" ry="1.9"/>
	<ellipse fill="#68B212" cx="102" cy="63.8" rx="14.8" ry="1.1"/>
	<path fill="#2E8C06" d="M102,62.9c8.2,0,14.8,0.6,14.8,1.1c0,0.6-6.7,1.1-14.8,1.1"/>
	<ellipse fill="#070707" cx="102" cy="67.8" rx="3" ry="1.9"/>
	<ellipse fill="#68B212" cx="102" cy="66.8" rx="14.8" ry="1.1"/>
	<path fill="#2E8C06" d="M102,65.9c8.2,0,14.8,0.6,14.8,1.1c0,0.6-6.7,1.1-14.8,1.1"/>
	<ellipse fill="#070707" cx="102" cy="70.7" rx="3" ry="1.9"/>
	<ellipse fill="#68B212" cx="102" cy="70" rx="14.8" ry="1.1"/>
	<path fill="#2E8C06" d="M102,68.9c8.2,0,14.8,0.6,14.8,1.1c0,0.6-6.7,1.1-14.8,1.1"/>
	<ellipse fill="#070707" cx="102" cy="73.7" rx="3" ry="1.9"/>
	<ellipse fill="#68B212" cx="102" cy="73" rx="14.8" ry="1.1"/>
	<path fill="#2E8C06" d="M102,71.9c8.2,0,14.8,0.6,14.8,1.1c0,0.6-6.6,1.1-14.8,1.1"/>
	<ellipse fill="#070707" cx="102" cy="76.9" rx="3" ry="1.9"/>
	<ellipse fill="#68B212" cx="102" cy="76" rx="14.8" ry="1.1"/>
	<path fill="#2E8C06" d="M102,75.1c8.2,0,14.8,0.6,14.8,1.1c0,0.6-6.7,1.1-14.8,1.1"/>
	<ellipse fill="#070707" cx="102" cy="79.9" rx="3" ry="1.9"/>
	<ellipse fill="#68B212" cx="102" cy="79" rx="14.8" ry="1.1"/>
	<path fill="#2E8C06" d="M102,78c8.2,0,14.8,0.6,14.8,1.1c0,0.6-6.7,1.1-14.8,1.1"/>
	<ellipse fill="#070707" cx="102" cy="82.9" rx="3" ry="1.9"/>
	<ellipse fill="#68B212" cx="102" cy="82.2" rx="14.8" ry="1.1"/>
	<path fill="#2E8C06" d="M102,81c8.2,0,14.8,0.6,14.8,1.1c0,0.6-6.7,1.1-14.8,1.1"/>
	<ellipse fill="#070707" cx="102" cy="85.9" rx="3" ry="1.9"/>
	<ellipse fill="#68B212" cx="102" cy="85.2" rx="14.8" ry="1.1"/>
	<path fill="#2E8C06" d="M102,84c8.2,0,14.8,0.6,14.8,1.1c0,0.6-6.7,1.1-14.8,1.1"/>
	<ellipse fill="#070707" cx="102" cy="89.1" rx="3" ry="1.9"/>
	<ellipse fill="#68B212" cx="102" cy="88.2" rx="14.8" ry="1.1"/>
	<path fill="#2E8C06" d="M102,87.2c8.2,0,14.8,0.6,14.8,1.1c0,0.6-6.7,1.1-14.8,1.1"/>
	<ellipse fill="#070707" cx="102" cy="92.1" rx="3" ry="1.9"/>
	<ellipse fill="#68B212" cx="102" cy="91.1" rx="14.8" ry="1.1"/>
	<path fill="#2E8C06" d="M102,90.2c8.2,0,14.8,0.6,14.8,1.1c0,0.6-6.7,1.1-14.8,1.1"/>
	<path fill="#070707" d="M187.5,44.2c0,0.7-0.6,1.3-1.3,1.3l0,0c-0.7,0-1.3-0.6-1.3-1.3V14.2c0-0.7,0.6-1.3,1.3-1.3l0,0
		c0.7,0,1.3,0.6,1.3,1.3V44.2z"/>
	<path fill="#4D4F4B" d="M191.3,13.3c0,2.8-2.2,5.2-5.2,5.2l0,0c-2.8,0-5.2-2.2-5.2-5.2v-6c0-2.8,2.2-5.2,5.2-5.2l0,0
		c2.8,0,5.2,2.2,5.2,5.2V13.3z"/>
	<g>
		<path fill="#070707" d="M186.2,2.1L186.2,2.1c2.8,0,5.2,2.2,5.2,5.2v6c0,2.8-2.2,5.2-5.2,5.2l0,0"/>
		<ellipse fill="#070707" cx="186.2" cy="46.4" rx="3" ry="1.9"/>
	</g>
	<ellipse fill="#68B212" cx="186.2" cy="45.7" rx="14.8" ry="1.1"/>
	<path fill="#2E8C06" d="M186.2,44.5c8.2,0,14.8,0.6,14.8,1.1s-6.7,1.1-14.8,1.1"/>
	<ellipse fill="#070707" cx="186.2" cy="49.4" rx="3" ry="1.9"/>
	<ellipse fill="#68B212" cx="186.2" cy="48.7" rx="14.8" ry="1.1"/>
	<path fill="#2E8C06" d="M186.2,47.5c8.2,0,14.8,0.6,14.8,1.1s-6.6,1.1-14.8,1.1"/>
	<ellipse fill="#070707" cx="186.2" cy="52.6" rx="3" ry="1.9"/>
	<ellipse fill="#68B212" cx="186.2" cy="51.7" rx="14.8" ry="1.1"/>
	<path fill="#2E8C06" d="M186.2,50.7c8.2,0,14.8,0.6,14.8,1.1s-6.7,1.1-14.8,1.1"/>
	<ellipse fill="#070707" cx="186.2" cy="55.6" rx="3" ry="1.9"/>
	<ellipse fill="#68B212" cx="186.2" cy="54.7" rx="14.8" ry="1.1"/>
	<path fill="#2E8C06" d="M186.2,53.7c8.2,0,14.8,0.6,14.8,1.1s-6.7,1.1-14.8,1.1"/>
	<ellipse fill="#070707" cx="186.2" cy="58.6" rx="3" ry="1.9"/>
	<ellipse fill="#68B212" cx="186.2" cy="57.8" rx="14.8" ry="1.1"/>
	<path fill="#2E8C06" d="M186.2,56.7c8.2,0,14.8,0.6,14.8,1.1s-6.7,1.1-14.8,1.1"/>
	<ellipse fill="#070707" cx="186.2" cy="61.6" rx="3" ry="1.9"/>
	<ellipse fill="#68B212" cx="186.2" cy="60.8" rx="14.8" ry="1.1"/>
	<path fill="#2E8C06" d="M186.2,59.7c8.2,0,14.8,0.6,14.8,1.1s-6.7,1.1-14.8,1.1"/>
	<ellipse fill="#070707" cx="186.2" cy="64.8" rx="3" ry="1.9"/>
	<ellipse fill="#68B212" cx="186.2" cy="63.8" rx="14.8" ry="1.1"/>
	<path fill="#2E8C06" d="M186.2,62.9c8.2,0,14.8,0.6,14.8,1.1c0,0.6-6.7,1.1-14.8,1.1"/>
	<ellipse fill="#070707" cx="186.2" cy="67.8" rx="3" ry="1.9"/>
	<ellipse fill="#68B212" cx="186.2" cy="66.8" rx="14.8" ry="1.1"/>
	<path fill="#2E8C06" d="M186.2,65.9c8.2,0,14.8,0.6,14.8,1.1c0,0.6-6.7,1.1-14.8,1.1"/>
	<ellipse fill="#070707" cx="186.2" cy="70.7" rx="3" ry="1.9"/>
	<ellipse fill="#68B212" cx="186.2" cy="70" rx="14.8" ry="1.1"/>
	<path fill="#2E8C06" d="M186.2,68.9c8.2,0,14.8,0.6,14.8,1.1c0,0.6-6.7,1.1-14.8,1.1"/>
	<ellipse fill="#070707" cx="186.2" cy="73.7" rx="3" ry="1.9"/>
	<ellipse fill="#68B212" cx="186.2" cy="73" rx="14.8" ry="1.1"/>
	<path fill="#2E8C06" d="M186.2,71.9c8.2,0,14.8,0.6,14.8,1.1c0,0.6-6.6,1.1-14.8,1.1"/>
	<ellipse fill="#070707" cx="186.2" cy="76.9" rx="3" ry="1.9"/>
	<ellipse fill="#68B212" cx="186.2" cy="76" rx="14.8" ry="1.1"/>
	<path fill="#2E8C06" d="M186.2,75.1c8.2,0,14.8,0.6,14.8,1.1c0,0.6-6.7,1.1-14.8,1.1"/>
	<ellipse fill="#070707" cx="186.2" cy="79.9" rx="3" ry="1.9"/>
	<ellipse fill="#68B212" cx="186.2" cy="79" rx="14.8" ry="1.1"/>
	<path fill="#2E8C06" d="M186.2,78c8.2,0,14.8,0.6,14.8,1.1c0,0.6-6.7,1.1-14.8,1.1"/>
	<ellipse fill="#070707" cx="186.2" cy="82.9" rx="3" ry="1.9"/>
	<ellipse fill="#68B212" cx="186.2" cy="82.2" rx="14.8" ry="1.1"/>
	<path fill="#2E8C06" d="M186.2,81c8.2,0,14.8,0.6,14.8,1.1c0,0.6-6.7,1.1-14.8,1.1"/>
	<ellipse fill="#070707" cx="186.2" cy="85.9" rx="3" ry="1.9"/>
	<ellipse fill="#68B212" cx="186.2" cy="85.2" rx="14.8" ry="1.1"/>
	<path fill="#2E8C06" d="M186.2,84c8.2,0,14.8,0.6,14.8,1.1c0,0.6-6.7,1.1-14.8,1.1"/>
	<ellipse fill="#070707" cx="186.2" cy="89.1" rx="3" ry="1.9"/>
	<ellipse fill="#68B212" cx="186.2" cy="88.2" rx="14.8" ry="1.1"/>
	<path fill="#2E8C06" d="M186.2,87.2c8.2,0,14.8,0.6,14.8,1.1c0,0.6-6.7,1.1-14.8,1.1"/>
	<ellipse fill="#070707" cx="186.2" cy="92.1" rx="3" ry="1.9"/>
	<ellipse fill="#68B212" cx="186.2" cy="91.1" rx="14.8" ry="1.1"/>
	<path fill="#2E8C06" d="M186.2,90.2c8.2,0,14.8,0.6,14.8,1.1c0,0.6-6.7,1.1-14.8,1.1"/>
	<path fill="#1B9CCE" d="M194.3,3.6c0,1.9-1.5,3.6-3.6,3.6H97.5c-1.9,0-3.6-1.5-3.6-3.6l0,0c0-1.9,1.5-3.6,3.6-3.6h93.2
		C192.6,0.2,194.3,1.7,194.3,3.6L194.3,3.6z"/>
	<g>
		<path fill="#237EB5" d="M194.3,3.6L194.3,3.6c0,1.9-1.5,3.6-3.6,3.6H97.5c-1.9,0-3.6-1.5-3.6-3.6l0,0"/>
		<path fill="#237EB5" d="M173.3,13.5c0,2.1-1.7,3.6-3.6,3.6h-51.3c-2.1,0-3.6-1.7-3.6-3.6l0,0c0-2.1,1.7-3.6,3.6-3.6h51.3
			C171.8,9.9,173.3,11.6,173.3,13.5L173.3,13.5z"/>
	</g>
	<g>
		<circle fill="#6BCBE8" cx="120.9" cy="19.5" r="1.1"/>
		<circle fill="#6BCBE8" cx="120.9" cy="24.7" r="1.1"/>
		<circle fill="#6BCBE8" cx="120.9" cy="29.8" r="1.1"/>
		<circle fill="#6BCBE8" cx="120.9" cy="35" r="1.1"/>
		<circle fill="#6BCBE8" cx="120.9" cy="40.1" r="1.1"/>
		<circle fill="#6BCBE8" cx="125.2" cy="24.1" r="1.1"/>
		<circle fill="#6BCBE8" cx="125.2" cy="29.4" r="1.1"/>
		<circle fill="#6BCBE8" cx="125.2" cy="34.4" r="1.1"/>
		<circle fill="#6BCBE8" cx="125.2" cy="39.7" r="1.1"/>
		<circle fill="#6BCBE8" cx="125.2" cy="44.7" r="1.1"/>
		<circle fill="#6BCBE8" cx="129.3" cy="19.5" r="1.1"/>
		<circle fill="#6BCBE8" cx="129.3" cy="24.7" r="1.1"/>
		<circle fill="#6BCBE8" cx="129.3" cy="29.8" r="1.1"/>
		<circle fill="#6BCBE8" cx="129.3" cy="35" r="1.1"/>
		<circle fill="#6BCBE8" cx="129.3" cy="40.1" r="1.1"/>
		<circle fill="#6BCBE8" cx="133.6" cy="24.1" r="1.1"/>
		<circle fill="#6BCBE8" cx="133.6" cy="29.4" r="1.1"/>
		<circle fill="#6BCBE8" cx="133.6" cy="34.4" r="1.1"/>
		<circle fill="#6BCBE8" cx="133.6" cy="39.7" r="1.1"/>
		<circle fill="#6BCBE8" cx="133.6" cy="44.7" r="1.1"/>
		<circle fill="#6BCBE8" cx="137.7" cy="19.5" r="1.1"/>
		<circle fill="#6BCBE8" cx="137.7" cy="24.7" r="1.1"/>
		<circle fill="#6BCBE8" cx="137.7" cy="29.8" r="1.1"/>
		<circle fill="#6BCBE8" cx="137.7" cy="35" r="1.1"/>
		<circle fill="#6BCBE8" cx="137.7" cy="40.1" r="1.1"/>
		<circle fill="#6BCBE8" cx="142" cy="24.1" r="1.1"/>
		<circle fill="#6BCBE8" cx="142" cy="29.4" r="1.1"/>
		<circle fill="#6BCBE8" cx="142" cy="34.4" r="1.1"/>
		<circle fill="#6BCBE8" cx="142" cy="39.7" r="1.1"/>
		<circle fill="#6BCBE8" cx="142" cy="44.7" r="1.1"/>
		<circle fill="#6BCBE8" cx="146.2" cy="19.5" r="1.1"/>
		<circle fill="#6BCBE8" cx="146.2" cy="24.7" r="1.1"/>
		<circle fill="#6BCBE8" cx="146.2" cy="29.8" r="1.1"/>
		<circle fill="#6BCBE8" cx="146.2" cy="35" r="1.1"/>
		<circle fill="#6BCBE8" cx="146.2" cy="40.1" r="1.1"/>
		<circle fill="#6BCBE8" cx="150.5" cy="24.1" r="1.1"/>
		<circle fill="#6BCBE8" cx="150.5" cy="29.4" r="1.1"/>
		<circle fill="#6BCBE8" cx="150.5" cy="34.4" r="1.1"/>
		<circle fill="#6BCBE8" cx="150.5" cy="39.7" r="1.1"/>
		<circle fill="#6BCBE8" cx="150.5" cy="44.7" r="1.1"/>
		<circle fill="#6BCBE8" cx="154.6" cy="19.5" r="1.1"/>
		<circle fill="#6BCBE8" cx="154.6" cy="24.7" r="1.1"/>
		<circle fill="#6BCBE8" cx="154.6" cy="29.8" r="1.1"/>
		<circle fill="#6BCBE8" cx="154.6" cy="35" r="1.1"/>
		<circle fill="#6BCBE8" cx="154.6" cy="40.1" r="1.1"/>
		<circle fill="#6BCBE8" cx="158.9" cy="24.1" r="1.1"/>
		<circle fill="#6BCBE8" cx="158.9" cy="29.4" r="1.1"/>
		<circle fill="#6BCBE8" cx="158.9" cy="34.4" r="1.1"/>
		<circle fill="#6BCBE8" cx="158.9" cy="39.7" r="1.1"/>
		<circle fill="#6BCBE8" cx="158.9" cy="44.7" r="1.1"/>
		<circle fill="#6BCBE8" cx="163" cy="19.5" r="1.1"/>
		<circle fill="#6BCBE8" cx="163" cy="24.7" r="1.1"/>
		<circle fill="#6BCBE8" cx="163" cy="29.8" r="1.1"/>
		<circle fill="#6BCBE8" cx="163" cy="35" r="1.1"/>
		<circle fill="#6BCBE8" cx="163" cy="40.1" r="1.1"/>
		<circle fill="#6BCBE8" cx="167.3" cy="24.1" r="1.1"/>
		<circle fill="#6BCBE8" cx="167.3" cy="29.4" r="1.1"/>
		<circle fill="#6BCBE8" cx="167.3" cy="34.4" r="1.1"/>
		<circle fill="#6BCBE8" cx="167.3" cy="39.7" r="1.1"/>
		<circle fill="#6BCBE8" cx="167.3" cy="44.7" r="1.1"/>
	</g>
	<path fill="#D3D0CD" d="M17.1,36.7c0,1.6-1.3,2.8-2.8,2.8l0,0c-1.6,0-2.8-1.3-2.8-2.8v-9c0-1.6,1.3-2.8,2.8-2.8l0,0
		c1.6,0,2.8,1.3,2.8,2.8L17.1,36.7z"/>
	<path fill="#BABABA" d="M14.2,24.8L14.2,24.8c1.6,0,2.8,1.3,2.8,2.8v9.1c0,1.6-1.3,2.8-2.8,2.8l0,0"/>
	<path fill="#36C9B4" d="M20.4,44.7c0,0.9-0.8,1.6-1.6,1.6h-9c-0.9,0-1.6-0.8-1.6-1.6v-8.4c0-0.9,0.8-1.6,1.6-1.6h8.8
		c0.9,0,1.6,0.8,1.6,1.6v8.4H20.4z"/>
	<path fill="#1B9EA8" d="M20.4,36.2v8.4c0,0.9-0.8,1.6-1.6,1.6h-9c-0.9,0-1.6-0.8-1.6-1.6v-8.4"/>
	<g>
		<path fill="#BABABA" d="M16.6,27.6c0,0.1-0.1,0.3-0.3,0.3h-4.3c-0.1,0-0.3-0.1-0.3-0.3l0,0c0-0.1,0.1-0.3,0.3-0.3h4.3
			C16.5,27.5,16.6,27.5,16.6,27.6L16.6,27.6z"/>
		<path fill="#BABABA" d="M16.6,29.2c0,0.1-0.1,0.3-0.3,0.3h-4.3c-0.1,0-0.3-0.1-0.3-0.3l0,0c0-0.1,0.1-0.3,0.3-0.3h4.3
			C16.5,29,16.6,29.1,16.6,29.2L16.6,29.2z"/>
		<path fill="#BABABA" d="M16.6,30.7c0,0.1-0.1,0.3-0.3,0.3h-4.3c-0.1,0-0.3-0.1-0.3-0.3l0,0c0-0.1,0.1-0.3,0.3-0.3h4.3
			C16.5,30.4,16.6,30.6,16.6,30.7L16.6,30.7z"/>
		<path fill="#BABABA" d="M16.6,32.2c0,0.1-0.1,0.3-0.3,0.3h-4.3c-0.1,0-0.3-0.1-0.3-0.3l0,0c0-0.1,0.1-0.3,0.3-0.3h4.3
			C16.5,32,16.6,32,16.6,32.2L16.6,32.2z"/>
		<path fill="#BABABA" d="M16.6,33.7c0,0.1-0.1,0.3-0.3,0.3h-4.3c-0.1,0-0.3-0.1-0.3-0.3l0,0c0-0.1,0.1-0.3,0.3-0.3h4.3
			C16.5,33.5,16.6,33.5,16.6,33.7L16.6,33.7z"/>
	</g>
	<ellipse transform="matrix(-0.7799 0.626 -0.626 -0.7799 39.5857 38.6512)" fill="#DDDCDB" cx="13" cy="26.3" rx="1.1" ry="0.5"/>
	<path fill="#D3D0CD" d="M70.7,36.7c0,1.6-1.3,2.8-2.8,2.8l0,0c-1.6,0-2.8-1.3-2.8-2.8v-9c0-1.6,1.3-2.8,2.8-2.8l0,0
		c1.6,0,2.8,1.3,2.8,2.8V36.7z"/>
	<path fill="#BABABA" d="M67.9,24.8L67.9,24.8c1.6,0,2.8,1.3,2.8,2.8v9.1c0,1.6-1.3,2.8-2.8,2.8l0,0"/>
	<path fill="#36C9B4" d="M73.9,44.7c0,0.9-0.8,1.6-1.6,1.6h-8.8c-0.9,0-1.6-0.8-1.6-1.6v-8.4c0-0.9,0.8-1.6,1.6-1.6h8.8
		c0.9,0,1.6,0.8,1.6,1.6V44.7z"/>
	<path fill="#1B9EA8" d="M73.9,36.2v8.4c0,0.9-0.8,1.6-1.6,1.6h-8.8c-0.9,0-1.6-0.8-1.6-1.6v-8.4"/>
	<g>
		<path fill="#BABABA" d="M70.3,27.6c0,0.1-0.1,0.3-0.3,0.3h-4.3c-0.1,0-0.3-0.1-0.3-0.3l0,0c0-0.1,0.1-0.3,0.3-0.3h4.3
			C70.2,27.5,70.3,27.5,70.3,27.6L70.3,27.6z"/>
		<path fill="#BABABA" d="M70.3,29.2c0,0.1-0.1,0.3-0.3,0.3h-4.3c-0.1,0-0.3-0.1-0.3-0.3l0,0c0-0.1,0.1-0.3,0.3-0.3h4.3
			C70.2,29,70.3,29.1,70.3,29.2L70.3,29.2z"/>
		<path fill="#BABABA" d="M70.3,30.7c0,0.1-0.1,0.3-0.3,0.3h-4.3c-0.1,0-0.3-0.1-0.3-0.3l0,0c0-0.1,0.1-0.3,0.3-0.3h4.3
			C70.2,30.4,70.3,30.6,70.3,30.7L70.3,30.7z"/>
		<path fill="#BABABA" d="M70.3,32.2c0,0.1-0.1,0.3-0.3,0.3h-4.3c-0.1,0-0.3-0.1-0.3-0.3l0,0c0-0.1,0.1-0.3,0.3-0.3h4.3
			C70.2,32,70.3,32,70.3,32.2L70.3,32.2z"/>
		<path fill="#BABABA" d="M70.3,33.7c0,0.1-0.1,0.3-0.3,0.3h-4.3c-0.1,0-0.3-0.1-0.3-0.3l0,0c0-0.1,0.1-0.3,0.3-0.3h4.3
			C70.2,33.5,70.3,33.5,70.3,33.7L70.3,33.7z"/>
	</g>
	
		<ellipse transform="matrix(-0.7799 0.626 -0.626 -0.7799 135.0267 5.1856)" fill="#DDDCDB" cx="66.6" cy="26.3" rx="1.1" ry="0.5"/>
	<path fill="#E56A05" d="M79.8,90.3c0,1.6-1.3,2.9-2.9,2.9H5.3c-1.6,0-2.9-1.3-2.9-2.9V44.1c0-1.6,1.3-2.9,2.9-2.9H77
		c1.6,0,2.9,1.3,2.9,2.9v46.2H79.8z"/>
	<g>
		
			<rect x="1.1" y="58.3" transform="matrix(0.7071 0.7071 -0.7071 0.7071 44.092 15.289)" fill="#0E6A7F" width="5.1" height="5.1"/>
		
			<rect x="75.9" y="58.4" transform="matrix(0.7071 0.7071 -0.7071 0.7071 66.0288 -37.6068)" fill="#0E6A7F" width="5.1" height="5.1"/>
	</g>
	<path fill="#F9AA0D" d="M79.8,88c0,1.6-1.3,2.9-2.9,2.9H5.3c-1.6,0-2.9-1.2-2.9-2.9V41.8c0-1.6,1.3-2.9,2.9-2.9H77
		c1.6,0,2.9,1.3,2.9,2.9V88H79.8z"/>
	<g>
		<path fill="#FC880B" d="M2.3,41.8c0-1.6,1.3-2.9,2.9-2.9H77c1.6,0,2.9,1.3,2.9,2.9V88c0,1.6-1.3,2.9-2.9,2.9"/>
		<rect x="2.3" y="50.9" fill="#FC880B" width="77.6" height="13.1"/>
	</g>
	<rect x="0.2" y="49.8" fill="#1B9EA8" width="81.8" height="11"/>
	<rect x="0.2" y="46.2" fill="#52DBC4" width="81.8" height="11"/>
	<rect x="0.2" y="47.5" fill="#36C9B4" width="81.8" height="11"/>
	<rect x="30.5" y="47.5" fill="#29B7B7" width="51.4" height="11"/>
	<g>
		<rect x="8.6" y="49.4" fill="#FFF6CF" width="3.2" height="7.3"/>
		<rect x="6.6" y="51.6" fill="#FFF6CF" width="7.3" height="3.2"/>
		<rect x="68.2" y="51.6" fill="#FFF6CF" width="7.3" height="3.2"/>
	</g>
	<path fill="#FC880B" d="M8.6,86.4c0,0.8-0.5,1.3-1.3,1.3l0,0c-0.8,0-1.3-0.5-1.3-1.3V64.7c0-0.8,0.5-1.3,1.3-1.3l0,0
		c0.8,0,1.3,0.5,1.3,1.3V86.4z"/>
	<path fill="#E56A05" d="M7.3,63.3L7.3,63.3c0.8,0,1.3,0.5,1.3,1.3v21.6c0,0.8-0.5,1.3-1.3,1.3l0,0"/>
	<path fill="#FC880B" d="M17,86.4c0,0.8-0.5,1.3-1.3,1.3l0,0c-0.8,0-1.3-0.5-1.3-1.3V64.7c0-0.8,0.5-1.3,1.3-1.3l0,0
		c0.8,0,1.3,0.5,1.3,1.3V86.4z"/>
	<path fill="#E56A05" d="M15.7,63.3L15.7,63.3c0.8,0,1.3,0.5,1.3,1.3v21.6c0,0.8-0.5,1.3-1.3,1.3l0,0"/>
	<path fill="#FC880B" d="M25.4,86.4c0,0.8-0.5,1.3-1.3,1.3l0,0c-0.8,0-1.3-0.5-1.3-1.3V64.7c0-0.8,0.5-1.3,1.3-1.3l0,0
		c0.8,0,1.3,0.5,1.3,1.3V86.4z"/>
	<path fill="#E56A05" d="M24.1,63.3L24.1,63.3c0.8,0,1.3,0.5,1.3,1.3v21.6c0,0.8-0.5,1.3-1.3,1.3l0,0"/>
	<path fill="#FC880B" d="M34,86.4c0,0.8-0.5,1.3-1.3,1.3l0,0c-0.8,0-1.3-0.5-1.3-1.3V64.7c0-0.8,0.5-1.3,1.3-1.3l0,0
		c0.8,0,1.3,0.5,1.3,1.3V86.4z"/>
	<path fill="#E56A05" d="M32.6,63.3L32.6,63.3c0.8,0,1.3,0.5,1.3,1.3v21.6c0,0.8-0.5,1.3-1.3,1.3l0,0"/>
	<path fill="#FC880B" d="M42.4,86.4c0,0.8-0.5,1.3-1.3,1.3l0,0c-0.8,0-1.3-0.5-1.3-1.3V64.7c0-0.8,0.5-1.3,1.3-1.3l0,0
		c0.8,0,1.3,0.5,1.3,1.3V86.4z"/>
	<path fill="#E56A05" d="M41.1,63.3L41.1,63.3c0.8,0,1.3,0.5,1.3,1.3v21.6c0,0.8-0.5,1.3-1.3,1.3l0,0"/>
	<path fill="#FC880B" d="M50.8,86.4c0,0.8-0.5,1.3-1.3,1.3l0,0c-0.8,0-1.3-0.5-1.3-1.3V64.7c0-0.8,0.5-1.3,1.3-1.3l0,0
		c0.8,0,1.3,0.5,1.3,1.3V86.4z"/>
	<path fill="#E56A05" d="M49.5,63.3L49.5,63.3c0.8,0,1.3,0.5,1.3,1.3v21.6c0,0.8-0.5,1.3-1.3,1.3l0,0"/>
	<path fill="#FC880B" d="M59.4,86.4c0,0.8-0.5,1.3-1.3,1.3l0,0c-0.8,0-1.3-0.5-1.3-1.3V64.7c0-0.8,0.5-1.3,1.3-1.3l0,0
		c0.8,0,1.3,0.5,1.3,1.3V86.4z"/>
	<path fill="#E56A05" d="M58,63.3L58,63.3c0.8,0,1.3,0.5,1.3,1.3v21.6c0,0.8-0.5,1.3-1.3,1.3l0,0"/>
	<path fill="#FC880B" d="M67.8,86.4c0,0.8-0.5,1.3-1.3,1.3l0,0c-0.8,0-1.3-0.5-1.3-1.3V64.7c0-0.8,0.5-1.3,1.3-1.3l0,0
		c0.8,0,1.3,0.5,1.3,1.3V86.4z"/>
	<path fill="#E56A05" d="M66.5,63.3L66.5,63.3c0.8,0,1.3,0.5,1.3,1.3v21.6c0,0.8-0.5,1.3-1.3,1.3l0,0"/>
	<path fill="#FC880B" d="M76.2,86.4c0,0.8-0.5,1.3-1.3,1.3l0,0c-0.8,0-1.3-0.5-1.3-1.3V64.7c0-0.8,0.5-1.3,1.3-1.3l0,0
		c0.8,0,1.3,0.5,1.3,1.3V86.4z"/>
	<path fill="#E56A05" d="M74.9,63.3L74.9,63.3c0.8,0,1.3,0.5,1.3,1.3v21.6c0,0.8-0.5,1.3-1.3,1.3l0,0"/>
	<g>
		<circle fill="#52DBC4" cx="20.4" cy="50.4" r="0.7"/>
		<circle fill="#52DBC4" cx="25.6" cy="50.4" r="0.7"/>
		<circle fill="#52DBC4" cx="30.8" cy="50.4" r="0.7"/>
		<circle fill="#52DBC4" cx="35.9" cy="50.4" r="0.7"/>
		<circle fill="#52DBC4" cx="41.1" cy="50.4" r="0.7"/>
		<circle fill="#52DBC4" cx="46.3" cy="50.4" r="0.7"/>
		<circle fill="#52DBC4" cx="51.5" cy="50.4" r="0.7"/>
		<circle fill="#52DBC4" cx="56.6" cy="50.4" r="0.7"/>
		<circle fill="#52DBC4" cx="61.8" cy="50.4" r="0.7"/>
		<circle fill="#52DBC4" cx="20.4" cy="53.2" r="0.7"/>
		<circle fill="#52DBC4" cx="25.6" cy="53.2" r="0.7"/>
		<circle fill="#52DBC4" cx="30.8" cy="53.2" r="0.7"/>
		<circle fill="#52DBC4" cx="35.9" cy="53.2" r="0.7"/>
		<circle fill="#52DBC4" cx="41.1" cy="53.2" r="0.7"/>
		<circle fill="#52DBC4" cx="46.3" cy="53.2" r="0.7"/>
		<circle fill="#52DBC4" cx="51.5" cy="53.2" r="0.7"/>
		<circle fill="#52DBC4" cx="56.6" cy="53.2" r="0.7"/>
		<circle fill="#52DBC4" cx="61.8" cy="53.2" r="0.7"/>
		<circle fill="#52DBC4" cx="20.4" cy="55.8" r="0.7"/>
		<circle fill="#52DBC4" cx="25.6" cy="55.8" r="0.7"/>
		<circle fill="#52DBC4" cx="30.8" cy="55.8" r="0.7"/>
		<circle fill="#52DBC4" cx="35.9" cy="55.8" r="0.7"/>
		<circle fill="#52DBC4" cx="41.1" cy="55.8" r="0.7"/>
		<circle fill="#52DBC4" cx="46.3" cy="55.8" r="0.7"/>
		<circle fill="#52DBC4" cx="51.5" cy="55.8" r="0.7"/>
		<circle fill="#52DBC4" cx="56.6" cy="55.8" r="0.7"/>
		<circle fill="#52DBC4" cx="61.8" cy="55.8" r="0.7"/>
	</g>
	<path fill="#F9AA0D" d="M77.7,40.1c0,0.4-0.4,0.8-0.8,0.8H5.3c-0.4,0-0.8-0.4-0.8-0.8l0,0c0-0.4,0.4-0.8,0.8-0.8h71.6
		C77.3,39.3,77.7,39.5,77.7,40.1L77.7,40.1z"/>
</g>
</svg>
