<?xml version="1.0" encoding="utf-8"?>
<!-- Svg Vector Icons : http://www.onlinewebfonts.com/icon -->
<!DOCTYPE svg PUBLIC "-//W3C//DTD SVG 1.1//EN" "http://www.w3.org/Graphics/SVG/1.1/DTD/svg11.dtd">
<svg version="1.1" xmlns="http://www.w3.org/2000/svg" xmlns:xlink="http://www.w3.org/1999/xlink" x="0px" y="0px" viewBox="0 0 1000 1000" enable-background="new 0 0 1000 1000" xml:space="preserve">
<metadata> Svg Vector Icons : http://www.onlinewebfonts.com/icon </metadata>
<g><g><path d="M10,675.5c0,46.1,37.3,83.4,83.4,83.4h125.1v128.7c0,23.1,18.8,41.7,41.7,41.7c11.7,0,22.3-4.8,29.8-12.5l157.8-157.8h458.7c46.1,0,83.4-37.3,83.4-83.4l0-521.3c0-46.1-37.3-83.4-83.4-83.4l-813.2,0c-46.1,0-83.4,37.3-83.4,83.4V675.5L10,675.5z M260.2,435.7c0-28.8,23.4-52.1,52.1-52.1s52.1,23.4,52.1,52.1s-23.4,52.1-52.1,52.1S260.2,464.4,260.2,435.7L260.2,435.7z M447.9,435.7c0-28.8,23.4-52.1,52.1-52.1s52.1,23.4,52.1,52.1s-23.4,52.1-52.1,52.1S447.9,464.4,447.9,435.7L447.9,435.7z M635.5,435.7c0-28.8,23.4-52.1,52.1-52.1s52.1,23.4,52.1,52.1s-23.4,52.1-52.1,52.1S635.5,464.4,635.5,435.7L635.5,435.7z"/></g></g>
</svg>