<?xml version="1.0" encoding="utf-8"?>
<!-- Generator: Adobe Illustrator 18.1.1, SVG Export Plug-In . SVG Version: 6.00 Build 0)  -->
<svg version="1.1" id="Слой_1" xmlns="http://www.w3.org/2000/svg" xmlns:xlink="http://www.w3.org/1999/xlink" x="0px" y="0px"
	 viewBox="0 0 25 25" enable-background="new 0 0 25 25" xml:space="preserve">
<g>
	<path fill="#A3A3A3" d="M23.6,1.4c-0.9-0.9-2-1.4-3.3-1.4H4.7C3.4,0,2.3,0.5,1.4,1.4C0.5,2.3,0,3.4,0,4.7v15.6
		c0,1.3,0.5,2.4,1.4,3.3c0.9,0.9,2,1.4,3.3,1.4h15.6c1.3,0,2.4-0.5,3.3-1.4c0.9-0.9,1.4-2,1.4-3.3V4.7C25,3.4,24.5,2.3,23.6,1.4
		L23.6,1.4z M8.9,20.8H4.2v-4.7L13,7.3l4.7,4.7L8.9,20.8z M20.2,9.4l-1.5,1.5l-4.7-4.7l1.5-1.5c0.3-0.3,0.7-0.5,1.1-0.5
		s0.8,0.2,1.1,0.5l2.5,2.5c0.3,0.3,0.5,0.7,0.5,1.1C20.7,8.8,20.6,9.1,20.2,9.4L20.2,9.4z M20.2,9.4"/>
	<path fill="#A3A3A3" d="M5.7,16.8v0.9h1.6v1.6h0.9L9,18.4L6.6,16L5.7,16.8z M5.7,16.8"/>
	<path fill="#A3A3A3" d="M8.1,14.4c-0.2,0.2-0.2,0.3,0,0.5c0.1,0.2,0.3,0.1,0.5,0l4.7-4.7c0.2-0.2,0.2-0.3,0-0.5
		c-0.1-0.2-0.3-0.1-0.5,0L8.1,14.4z M8.1,14.4"/>
</g>
</svg>
