<?xml version="1.0" encoding="utf-8"?>
<!-- Generator: Adobe Illustrator 18.1.1, SVG Export Plug-In . SVG Version: 6.00 Build 0)  -->
<svg version="1.1" id="Слой_1" xmlns="http://www.w3.org/2000/svg" xmlns:xlink="http://www.w3.org/1999/xlink" x="0px" y="0px"
	 viewBox="0 0 10.2 10.8" enable-background="new 0 0 10.2 10.8" xml:space="preserve">
<g>
	<path fill="#FFFFFF" d="M9.9,4.8L5.4,0.3C5.2,0.1,5,0,4.8,0C4.5,0,4.3,0.1,4.2,0.3L3.6,0.8C3.5,0.9,3.4,1.2,3.4,1.4
		c0,0.2,0.1,0.5,0.3,0.6l2,2H0.8c-0.2,0-0.4,0.1-0.6,0.3C0.1,4.5,0,4.7,0,4.9v0.9c0,0.2,0.1,0.5,0.2,0.6c0.1,0.2,0.3,0.3,0.6,0.3
		h4.9l-2,2C3.5,8.9,3.4,9.1,3.4,9.4c0,0.2,0.1,0.5,0.3,0.6l0.5,0.5c0.2,0.2,0.4,0.3,0.6,0.3c0.2,0,0.4-0.1,0.6-0.3L9.9,6
		c0.2-0.2,0.3-0.4,0.3-0.6C10.2,5.1,10.1,4.9,9.9,4.8L9.9,4.8z M9.9,4.8"/>
</g>
</svg>
