<?xml version="1.0" encoding="utf-8"?>
<!-- Generator: Adobe Illustrator 18.1.1, SVG Export Plug-In . SVG Version: 6.00 Build 0)  -->
<svg version="1.1" id="Слой_1" xmlns="http://www.w3.org/2000/svg" xmlns:xlink="http://www.w3.org/1999/xlink" x="0px" y="0px"
	 viewBox="0 0 15.8 15.8" enable-background="new 0 0 15.8 15.8" xml:space="preserve">
<g>
	<path fill="#FFFFFF" d="M15.5,6c-0.2-0.2-0.5-0.3-0.8-0.3H10V1.1c0-0.3-0.1-0.6-0.3-0.8C9.5,0.1,9.3,0,9,0H6.8C6.5,0,6.3,0.1,6,0.3
		C5.8,0.5,5.7,0.8,5.7,1.1v4.7H1.1C0.8,5.7,0.5,5.8,0.3,6C0.1,6.3,0,6.5,0,6.8V9c0,0.3,0.1,0.6,0.3,0.8C0.5,9.9,0.8,10,1.1,10h4.7
		v4.7c0,0.3,0.1,0.6,0.3,0.8c0.2,0.2,0.5,0.3,0.8,0.3H9c0.3,0,0.6-0.1,0.8-0.3C9.9,15.2,10,15,10,14.7V10h4.7c0.3,0,0.6-0.1,0.8-0.3
		c0.2-0.2,0.3-0.5,0.3-0.8V6.8C15.8,6.5,15.7,6.3,15.5,6L15.5,6z M15.5,6"/>
</g>
</svg>
