<?xml version="1.0" encoding="utf-8"?>
<!-- Generator: Adobe Illustrator 18.1.1, SVG Export Plug-In . SVG Version: 6.00 Build 0)  -->
<svg version="1.1" id="Слой_1" xmlns="http://www.w3.org/2000/svg" xmlns:xlink="http://www.w3.org/1999/xlink" x="0px" y="0px"
	 viewBox="0 0 12.5 10.7" enable-background="new 0 0 12.5 10.7" xml:space="preserve">
<g>
	<path fill="#A3A3A3" d="M11.6,2.2C11.1,1.5,10.3,1,9.4,0.6C8.4,0.2,7.4,0,6.2,0C5.4,0,4.6,0.1,3.8,0.4C3,0.6,2.4,0.9,1.8,1.3
		c-0.6,0.4-1,0.9-1.3,1.4C0.2,3.3,0,3.9,0,4.5c0,0.7,0.2,1.3,0.6,2C1,7,1.6,7.5,2.4,7.9C2.3,8.1,2.2,8.3,2.2,8.5
		C2.1,8.6,2,8.8,2,8.9C1.9,9,1.9,9.1,1.8,9.2C1.7,9.4,1.6,9.5,1.5,9.5c0,0.1-0.1,0.1-0.2,0.3C1.2,9.9,1.1,10,1.1,10c0,0,0,0-0.1,0.1
		c0,0,0,0.1,0,0.1l0,0.1c0,0,0,0.1,0,0.1c0,0,0,0,0,0.1c0,0,0,0.1,0,0.1v0c0,0.1,0.1,0.2,0.1,0.2c0.1,0.1,0.1,0.1,0.2,0.1
		c0.3,0,0.6-0.1,0.8-0.2c1.2-0.3,2.3-0.9,3.2-1.7c0.3,0,0.7,0.1,1,0.1c1.1,0,2.2-0.2,3.1-0.6c1-0.4,1.7-0.9,2.3-1.6
		c0.6-0.7,0.8-1.4,0.8-2.2C12.5,3.6,12.2,2.9,11.6,2.2L11.6,2.2z M11.6,2.2"/>
</g>
</svg>
