<?xml version="1.0" encoding="utf-8"?>
<!-- Generator: Adobe Illustrator 18.1.1, SVG Export Plug-In . SVG Version: 6.00 Build 0)  -->
<svg version="1.1" id="Слой_1" xmlns="http://www.w3.org/2000/svg" xmlns:xlink="http://www.w3.org/1999/xlink" x="0px" y="0px"
	 viewBox="0 0 185 39.1" enable-background="new 0 0 185 39.1" xml:space="preserve">
<path opacity="0.9" fill="#1C5BC9" d="M33,1.8c-9.3-2.4-18.6-2.4-28,0C3.4,2.2,2.2,3.6,1.7,5.3c-2.3,9.5-2.3,19,0,28.5
	c0.4,1.7,1.7,3.1,3.3,3.5c9.3,2.4,18.6,2.4,28,0c1.6-0.4,2.9-1.7,3.3-3.5c2.3-9.5,2.3-19,0-28.5C35.8,3.6,34.6,2.2,33,1.8z"/>
<path fill="#FFFFFF" d="M29.3,9.6C31.8,11.9,33,15,33,19c0,4-1.2,7.2-3.6,9.6c-2.4,2.3-6.1,3.5-11,3.5H9.5V6.2h9.2
	C23.3,6.2,26.8,7.3,29.3,9.6z M25,25c1.4-1.3,2.1-3.3,2.1-5.8s-0.7-4.5-2.1-5.9c-1.4-1.4-3.6-2.1-6.5-2.1h-3.2V27h3.7
	C21.6,27,23.6,26.3,25,25z"/>
<path fill="#1C5BC9" d="M50.4,16.8c-1.7,0-2.9,0.6-3.7,1.8c-0.8,1.2-1.2,2.7-1.2,4.7v8.6h-5.6V12h5.6v2.6c0.7-0.8,1.6-1.5,2.7-2.1
	c1.1-0.6,2.2-0.9,3.3-0.9l0,5.2H50.4z"/>
<path fill="#1C5BC9" d="M53.9,9.4C53.3,8.8,53,8,53,7.1c0-0.9,0.3-1.7,0.9-2.3s1.4-0.9,2.3-0.9c0.9,0,1.7,0.3,2.3,0.9
	s0.9,1.4,0.9,2.3c0,0.9-0.3,1.7-0.9,2.3s-1.4,0.9-2.3,0.9C55.3,10.4,54.6,10,53.9,9.4z M59,31.9h-5.6V12H59V31.9z"/>
<path fill="#1C5BC9" d="M68.9,32.2l-7.9-20h5.8l5,12.6l5-12.6h5.8l-7.9,20H68.9z"/>
<path fill="#1C5BC9" d="M100.4,29c-2.3,2.1-4.9,3.2-7.9,3.2c-3,0-5.5-0.9-7.5-2.8c-2-1.9-3-4.4-3-7.5c0-3.1,1-5.6,3-7.5
	c2-1.9,4.4-2.8,7.1-2.8s5.1,0.8,7,2.5c1.9,1.7,2.9,3.9,2.9,6.8v3H87.5c0.2,1.1,0.7,2,1.7,2.7c1,0.7,2.1,1,3.3,1c2,0,3.6-0.7,4.8-2
	L100.4,29z M95,17.2c-0.8-0.6-1.7-1-2.8-1c-1.1,0-2.1,0.3-3,1c-0.9,0.7-1.4,1.6-1.6,2.7h8.8C96.2,18.7,95.8,17.8,95,17.2z"/>
<path fill="#1C5BC9" d="M106,31.9V6h5.8v20.8h11.1v5.2H106z"/>
<path fill="#1C5BC9" d="M141.5,31.9h-5.2v-2.4c-1.4,1.8-3.2,2.7-5.3,2.7c-2.1,0-3.9-0.6-5.3-1.8c-1.4-1.2-2.2-2.9-2.2-4.9
	c0-2,0.7-3.6,2.2-4.6c1.5-1,3.5-1.5,6.1-1.5h4.2v-0.1c0-2.1-1.1-3.2-3.4-3.2c-1,0-2,0.2-3.1,0.6c-1.1,0.4-2,0.9-2.7,1.4l-2.5-3.6
	c2.6-1.9,5.6-2.9,9-2.9c2.4,0,4.4,0.6,5.9,1.8c1.5,1.2,2.3,3.1,2.3,5.7V31.9z M135.9,24.3v-1h-3.5c-2.2,0-3.3,0.7-3.3,2.1
	c0,0.7,0.3,1.3,0.8,1.7c0.5,0.4,1.3,0.6,2.3,0.6c1,0,1.9-0.3,2.6-0.9C135.5,26.1,135.9,25.3,135.9,24.3z"/>
<path fill="#1C5BC9" d="M149,20.8v11.1h-5.6V12h5.6v2.2c1.7-1.7,3.6-2.6,5.7-2.6c2.1,0,3.9,0.7,5.3,2.2c1.4,1.5,2.1,3.5,2.1,5.9
	v12.1h-5.6V20.6c0-3.1-1.1-4.6-3.4-4.6c-1.1,0-2.1,0.4-2.9,1.2C149.4,18,149,19.2,149,20.8z"/>
<path fill="#1C5BC9" d="M173.6,32.2c-2.4,0-4.5-1-6.3-3c-1.9-2-2.8-4.5-2.8-7.5s0.9-5.4,2.7-7.3c1.8-1.9,3.9-2.8,6.3-2.8
	c2.4,0,4.4,0.9,5.9,2.6V4.4h5.6v27.5h-5.6v-2.6C177.9,31.2,175.9,32.2,173.6,32.2z M170.1,22c0,1.6,0.5,2.9,1.4,3.9
	c1,1,2.1,1.5,3.4,1.5c1.3,0,2.4-0.5,3.3-1.5c0.9-1,1.4-2.3,1.4-4c0-1.6-0.5-3-1.4-4c-0.9-1.1-2-1.6-3.3-1.6c-1.3,0-2.4,0.5-3.4,1.6
	C170.5,19,170.1,20.4,170.1,22z"/>
</svg>
