<?xml version="1.0" encoding="utf-8"?>
<!-- Generator: Adobe Illustrator 18.1.1, SVG Export Plug-In . SVG Version: 6.00 Build 0)  -->
<svg version="1.1" id="Слой_1" xmlns="http://www.w3.org/2000/svg" xmlns:xlink="http://www.w3.org/1999/xlink" x="0px" y="0px"
	 viewBox="0 0 185 86.4" enable-background="new 0 0 185 86.4" xml:space="preserve">
<symbol  id="New_Symbol_1" viewBox="-92.5 -43.2 185 86.4">
	<g>
		<path opacity="0.9" fill="#1C5BC9" d="M-59.5,18c-9.3,2.4-18.6,2.4-28,0c-1.6-0.4-2.9-1.7-3.3-3.5c-2.3-9.5-2.3-19,0-28.5
			c0.4-1.7,1.7-3.1,3.3-3.5c9.3-2.4,18.6-2.4,28,0c1.6,0.4,2.9,1.7,3.3,3.5c2.3,9.5,2.3,19,0,28.5C-56.7,16.2-57.9,17.6-59.5,18z"/>
		<path opacity="0.1" fill="#1C5BC9" d="M-55.4-43.2c-0.2,1.4-0.5,2.7-0.8,4.1c-0.4,1.7-1.7,3.1-3.3,3.5c-9.3,2.4-18.6,2.4-28,0
			c-1.6-0.4-2.9-1.7-3.3-3.5c-0.3-1.4-0.6-2.7-0.8-4.1H-55.4z"/>
		<path opacity="0.1" fill="#1C5BC9" d="M-91.6,43.2c0.2-1.4,0.5-2.7,0.8-4.1c0.4-1.7,1.7-3,3.3-3.5c9.3-2.4,18.6-2.4,28,0
			c1.6,0.4,2.9,1.7,3.3,3.5c0.3,1.4,0.6,2.7,0.8,4.1L-91.6,43.2z"/>
		<path fill="#FFFFFF" d="M-63.2,10.2c2.5-2.3,3.7-5.4,3.7-9.4c0-4-1.2-7.2-3.6-9.6c-2.4-2.3-6.1-3.5-11-3.5H-83v25.9h9.2
			C-69.2,13.6-65.7,12.5-63.2,10.2z M-67.5-5.2c1.4,1.3,2.1,3.3,2.1,5.8s-0.7,4.5-2.1,5.9c-1.4,1.4-3.6,2.1-6.5,2.1h-3.2V-7.2h3.7
			C-70.9-7.2-68.9-6.5-67.5-5.2z"/>
		<path fill="#1C5BC9" d="M-42.1,3c-1.7,0-2.9-0.6-3.7-1.8c-0.8-1.2-1.2-2.7-1.2-4.7v-8.6h-5.6v20h5.6V5.2c0.7,0.8,1.6,1.5,2.7,2.1
			c1.1,0.6,2.2,0.9,3.3,0.9l0-5.2H-42.1z"/>
		<path fill="#1C5BC9" d="M-38.6,10.4c-0.6,0.6-0.9,1.4-0.9,2.3c0,0.9,0.3,1.7,0.9,2.3s1.4,0.9,2.3,0.9c0.9,0,1.7-0.3,2.3-0.9
			s0.9-1.4,0.9-2.3c0-0.9-0.3-1.7-0.9-2.3s-1.4-0.9-2.3-0.9C-37.2,9.4-37.9,9.8-38.6,10.4z M-33.5-12.1H-39v20h5.6V-12.1z"/>
		<path fill="#1C5BC9" d="M-23.6-12.4l-7.9,20h5.8l5-12.6l5,12.6h5.8l-7.9-20H-23.6z"/>
		<path fill="#1C5BC9" d="M7.9-9.2C5.6-11.3,3-12.4,0-12.4c-3,0-5.5,0.9-7.5,2.8c-2,1.9-3,4.4-3,7.5c0,3.1,1,5.6,3,7.5
			c2,1.9,4.4,2.8,7.1,2.8s5.1-0.8,7-2.5C8.5,4,9.5,1.8,9.5-1.1v-3H-5c0.2-1.1,0.7-2,1.7-2.7c1-0.7,2.1-1,3.3-1c2,0,3.6,0.7,4.8,2
			L7.9-9.2z M2.5,2.6c-0.8,0.6-1.7,1-2.8,1c-1.1,0-2.1-0.3-3-1C-4.2,1.9-4.7,1-4.9-0.1h8.8C3.7,1.1,3.3,2,2.5,2.6z"/>
		<path fill="#1C5BC9" d="M13.5-12.1v25.9h5.8V-6.9h11.1v-5.2H13.5z"/>
		<path fill="#1C5BC9" d="M49-12.1h-5.2v2.4c-1.4-1.8-3.2-2.7-5.3-2.7c-2.1,0-3.9,0.6-5.3,1.8C31.7-9.3,31-7.7,31-5.7
			c0,2,0.7,3.6,2.2,4.6c1.5,1,3.5,1.5,6.1,1.5h4.2v0.1c0,2.1-1.1,3.2-3.4,3.2c-1,0-2-0.2-3.1-0.6c-1.1-0.4-2-0.9-2.7-1.4l-2.5,3.6
			c2.6,1.9,5.6,2.9,9,2.9c2.4,0,4.4-0.6,5.9-1.8C48.2,5.2,49,3.2,49,0.6V-12.1z M43.4-4.5v1h-3.5c-2.2,0-3.3-0.7-3.3-2.1
			c0-0.7,0.3-1.3,0.8-1.7c0.5-0.4,1.3-0.6,2.3-0.6c1,0,1.9,0.3,2.6,0.9C43-6.3,43.4-5.5,43.4-4.5z"/>
		<path fill="#1C5BC9" d="M56.5-1v-11.1H51v20h5.6V5.6c1.7,1.7,3.6,2.6,5.7,2.6c2.1,0,3.9-0.7,5.3-2.2c1.4-1.5,2.1-3.5,2.1-5.9
			v-12.1H64v11.3c0,3.1-1.1,4.6-3.4,4.6c-1.1,0-2.1-0.4-2.9-1.2C56.9,1.8,56.5,0.6,56.5-1z"/>
		<path fill="#1C5BC9" d="M81.1-12.4c-2.4,0-4.5,1-6.3,3c-1.9,2-2.8,4.5-2.8,7.5s0.9,5.4,2.7,7.3c1.8,1.9,3.9,2.8,6.3,2.8
			c2.4,0,4.4-0.9,5.9-2.6v9.8h5.6v-27.5h-5.6v2.6C85.4-11.4,83.4-12.4,81.1-12.4z M77.6-2.2c0-1.6,0.5-2.9,1.4-3.9
			c1-1,2.1-1.5,3.4-1.5c1.3,0,2.4,0.5,3.3,1.5c0.9,1,1.4,2.3,1.4,4c0,1.6-0.5,3-1.4,4c-0.9,1.1-2,1.6-3.3,1.6C81,3.5,79.9,3,79,1.9
			C78,0.8,77.6-0.6,77.6-2.2z"/>
	</g>
</symbol>
<use xlink:href="#New_Symbol_1"  width="185" height="86.4" x="-92.5" y="-43.2" transform="matrix(1 0 0 -1 92.5 43.198)" overflow="visible"/>
</svg>
