<?xml version="1.0" encoding="utf-8"?>
<!-- Generator: Adobe Illustrator 18.1.1, SVG Export Plug-In . SVG Version: 6.00 Build 0)  -->
<svg version="1.1" id="Слой_1" xmlns="http://www.w3.org/2000/svg" xmlns:xlink="http://www.w3.org/1999/xlink" x="0px" y="0px"
	 viewBox="0 0 38 39.1" enable-background="new 0 0 38 39.1" xml:space="preserve">
<path opacity="0.9" fill="#1C5BC9" d="M33,1.8c-9.3-2.4-18.6-2.4-28,0C3.4,2.2,2.2,3.6,1.7,5.3c-2.3,9.5-2.3,19,0,28.5
	c0.4,1.7,1.7,3.1,3.3,3.5c9.3,2.4,18.6,2.4,28,0c1.6-0.4,2.9-1.7,3.3-3.5c2.3-9.5,2.3-19,0-28.5C35.8,3.6,34.6,2.2,33,1.8z"/>
<path fill="#FFFFFF" d="M29.3,9.6C31.8,11.9,33,15,33,19c0,4-1.2,7.2-3.6,9.6c-2.4,2.3-6.1,3.5-11,3.5H9.5V6.2h9.2
	C23.3,6.2,26.8,7.3,29.3,9.6z M25,25c1.4-1.3,2.1-3.3,2.1-5.8s-0.7-4.5-2.1-5.9c-1.4-1.4-3.6-2.1-6.5-2.1h-3.2V27h3.7
	C21.6,27,23.6,26.3,25,25z"/>
</svg>
