<?xml version="1.0" standalone="no"?>
<!DOCTYPE svg PUBLIC "-//W3C//DTD SVG 20010904//EN"
 "http://www.w3.org/TR/2001/REC-SVG-20010904/DTD/svg10.dtd">
<svg version="1.0" xmlns="http://www.w3.org/2000/svg"
 width="624.000000pt" height="624.000000pt" viewBox="0 0 624.000000 624.000000"
 preserveAspectRatio="xMidYMid meet">
<metadata>
Created by potrace 1.11, written by Peter Selinger 2001-2013
</metadata>
<g transform="translate(0.000000,624.000000) scale(0.100000,-0.100000)"
fill="#000000" stroke="none">
<path d="M2790 6233 c-25 -1 -124 -7 -220 -13 -419 -26 -836 -83 -1285 -176
-282 -59 -468 -109 -533 -144 -132 -70 -247 -190 -320 -335 -48 -96 -67 -155
-107 -330 -108 -480 -170 -898 -217 -1465 -18 -210 -18 -1090 0 -1300 48 -581
116 -1026 231 -1525 57 -247 104 -340 240 -475 114 -113 186 -150 385 -200
1111 -279 2231 -340 3361 -184 479 66 1036 189 1170 257 215 110 332 278 401
577 121 528 187 960 236 1550 18 210 18 1090 0 1300 -47 567 -109 985 -217
1465 -41 180 -61 240 -115 343 -76 147 -199 269 -335 333 -95 45 -506 140
-877 203 -503 86 -1008 128 -1498 124 -140 -1 -275 -3 -300 -5z m576 -993
c630 -49 1101 -237 1442 -578 292 -291 453 -628 524 -1097 20 -138 18 -598 -5
-746 -63 -416 -206 -744 -453 -1038 -239 -286 -632 -498 -1092 -591 -317 -63
-304 -63 -1284 -67 l-898 -4 0 2059 c0 1132 3 2062 7 2065 10 11 1617 8 1759
-3z"/>
<path d="M2530 3190 l0 -1260 323 0 c439 0 599 16 792 77 504 159 765 558 765
1168 0 395 -111 712 -325 930 -140 141 -302 230 -523 286 -187 47 -325 59
-699 59 l-333 0 0 -1260z"/>
</g>
</svg>
