<?xml version="1.0" standalone="no"?>
<!DOCTYPE svg PUBLIC "-//W3C//DTD SVG 20010904//EN"
 "http://www.w3.org/TR/2001/REC-SVG-20010904/DTD/svg10.dtd">
<svg version="1.0" xmlns="http://www.w3.org/2000/svg"
 width="1480.000000pt" height="1480.000000pt" viewBox="0 0 1480.000000 1480.000000"
 preserveAspectRatio="xMidYMid meet">
<metadata>
Created by potrace 1.11, written by Peter Selinger 2001-2013
</metadata>
<g transform="translate(0.000000,1480.000000) scale(0.100000,-0.100000)"
fill="#000000" stroke="none">
<path d="M2033 10835 c0 -8 4 -12 9 -9 5 3 6 10 3 15 -9 13 -12 11 -12 -6z"/>
<path d="M240 10800 c-9 -6 -10 -10 -3 -10 6 0 15 5 18 10 8 12 4 12 -15 0z"/>
<path d="M115 10649 c-4 -6 -5 -12 -2 -15 2 -3 7 2 10 11 7 17 1 20 -8 4z"/>
<path d="M1559 10633 c-13 -16 -12 -17 4 -4 9 7 17 15 17 17 0 8 -8 3 -21 -13z"/>
<path d="M390 10606 c0 -2 7 -7 16 -10 8 -3 12 -2 9 4 -6 10 -25 14 -25 6z"/>
<path d="M1670 10606 c0 -2 7 -7 16 -10 8 -3 12 -2 9 4 -6 10 -25 14 -25 6z"/>
<path d="M476 10553 c-6 -14 -5 -15 5 -6 7 7 10 15 7 18 -3 3 -9 -2 -12 -12z"/>
<path d="M1756 10553 c-6 -14 -5 -15 5 -6 7 7 10 15 7 18 -3 3 -9 -2 -12 -12z"/>
<path d="M2319 10513 c-13 -16 -12 -17 4 -4 9 7 17 15 17 17 0 8 -8 3 -21 -13z"/>
<path d="M2799 10513 c-13 -16 -12 -17 4 -4 9 7 17 15 17 17 0 8 -8 3 -21 -13z"/>
<path d="M2110 10496 c0 -2 8 -10 18 -17 15 -13 16 -12 3 4 -13 16 -21 21 -21
13z"/>
<path d="M2465 10480 c-3 -6 1 -7 9 -4 18 7 21 14 7 14 -6 0 -13 -4 -16 -10z"/>
<path d="M1420 10446 c0 -2 8 -10 18 -17 15 -13 16 -12 3 4 -13 16 -21 21 -21
13z"/>
<path d="M509 10403 c-13 -16 -12 -17 4 -4 16 13 21 21 13 21 -2 0 -10 -8 -17
-17z"/>
<path d="M1789 10403 c-13 -16 -12 -17 4 -4 16 13 21 21 13 21 -2 0 -10 -8
-17 -17z"/>
<path d="M2516 10407 c3 -10 9 -15 12 -12 3 3 0 11 -7 18 -10 9 -11 8 -5 -6z"/>
<path d="M395 10289 c-4 -6 -5 -12 -2 -15 2 -3 7 2 10 11 7 17 1 20 -8 4z"/>
<path d="M540 10286 c0 -2 8 -10 18 -17 15 -13 16 -12 3 4 -13 16 -21 21 -21
13z"/>
<path d="M1186 10282 c-2 -4 4 -8 14 -8 10 0 16 4 14 8 -3 4 -9 8 -14 8 -5 0
-11 -4 -14 -8z"/>
<path d="M1110 10241 c0 -6 4 -13 10 -16 6 -3 7 1 4 9 -7 18 -14 21 -14 7z"/>
<path d="M1750 10241 c0 -6 4 -13 10 -16 6 -3 7 1 4 9 -7 18 -14 21 -14 7z"/>
<path d="M2275 10211 c-3 -5 -2 -12 3 -15 5 -3 9 1 9 9 0 17 -3 19 -12 6z"/>
<path d="M1786 10122 c-3 -5 1 -9 9 -9 8 0 12 4 9 9 -3 4 -7 8 -9 8 -2 0 -6
-4 -9 -8z"/>
<path d="M1317 8974 c-1 -1 -51 -5 -112 -9 -115 -8 -160 -12 -160 -15 0 -1
-18 -3 -40 -5 -22 -1 -62 -6 -90 -10 -27 -4 -59 -9 -70 -10 -35 -3 -110 -17
-119 -22 -4 -3 -25 -7 -45 -9 -20 -2 -47 -6 -61 -9 -14 -4 -34 -8 -45 -10 -11
-3 -38 -9 -60 -15 -22 -6 -49 -12 -60 -15 -11 -2 -30 -6 -43 -9 -12 -3 -32 -8
-44 -11 -12 -2 -25 -10 -28 -16 -4 -6 -10 -9 -13 -7 -4 1 -16 -5 -27 -14 -11
-10 -24 -18 -29 -18 -11 0 -71 -67 -71 -80 0 -5 -3 -10 -7 -10 -10 0 -39 -64
-49 -105 -4 -16 -8 -34 -10 -40 -11 -39 -18 -74 -18 -102 -1 -17 -5 -29 -10
-25 -5 3 -7 -5 -4 -16 4 -12 3 -22 -2 -22 -7 0 -28 -109 -36 -185 -1 -16 -4
-30 -5 -30 -1 0 -3 -9 -4 -20 -1 -11 -6 -42 -10 -70 -12 -82 -20 -146 -31
-261 -3 -27 -7 -170 -10 -318 -4 -213 -2 -271 8 -278 7 -4 8 -8 2 -8 -9 0 -10
-26 -1 -135 1 -16 6 -36 10 -42 5 -7 4 -13 -1 -13 -5 0 -6 -20 -1 -47 4 -27 8
-69 8 -94 1 -25 4 -49 8 -53 4 -3 8 -24 9 -46 2 -37 19 -151 31 -210 2 -14 9
-45 13 -70 51 -269 87 -350 195 -438 19 -16 125 -64 125 -57 0 3 16 -1 35 -9
26 -11 35 -12 35 -3 0 9 2 9 8 0 4 -6 21 -13 39 -16 17 -3 35 -7 40 -10 9 -6
73 -18 118 -22 17 -2 31 -4 33 -5 1 -2 11 -4 22 -5 11 -1 21 -3 23 -5 5 -4 43
-10 90 -14 26 -3 50 -7 55 -9 4 -3 39 -8 77 -12 39 -3 84 -8 100 -10 17 -3 75
-7 129 -10 55 -3 103 -8 107 -11 4 -2 11 1 15 7 4 8 9 7 15 -2 7 -12 12 -12
29 -1 11 7 26 9 33 5 20 -13 177 -12 177 1 0 6 5 4 10 -4 9 -13 11 -13 20 0 5
9 10 10 10 3 0 -7 11 -10 28 -7 27 5 40 5 65 3 34 -4 310 21 407 36 19 4 53 9
75 12 22 3 42 9 45 14 3 4 12 4 20 -1 9 -5 19 -5 27 2 7 6 13 8 13 5 0 -3 36
3 80 13 44 10 83 18 85 19 3 1 7 2 10 2 3 1 10 3 15 4 6 1 19 3 31 4 11 0 18
4 16 9 -3 4 11 8 32 9 47 3 69 7 77 16 4 4 16 7 26 7 10 0 18 3 18 8 0 4 15
13 33 21 51 23 133 113 120 134 -3 6 -1 7 5 3 9 -5 20 13 28 47 1 4 3 9 4 12
1 3 4 10 5 15 1 6 3 11 5 13 2 2 4 14 13 57 3 14 10 44 15 68 5 23 8 42 5 42
-3 0 0 7 7 15 7 9 10 18 7 21 -3 3 -1 19 4 36 5 17 11 47 14 67 3 20 7 46 9
57 5 25 18 120 22 154 1 14 3 25 4 25 2 0 6 31 14 115 13 129 16 172 20 277 2
56 7 106 10 112 4 6 3 11 -3 11 -7 0 -7 8 -2 23 5 14 5 30 0 40 -7 11 -6 17 0
17 6 0 6 11 1 30 -5 17 -5 32 0 35 5 3 5 16 0 30 -7 18 -6 25 3 25 7 0 8 3 2
8 -5 4 -11 45 -12 92 -1 86 -8 197 -19 305 -4 33 -7 70 -7 83 -1 12 -4 22 -7
22 -3 0 -6 10 -6 23 -1 20 -6 65 -19 155 -4 31 -13 76 -19 97 -1 6 -8 43 -16
83 -7 39 -17 72 -21 72 -4 0 -6 11 -3 25 2 14 0 25 -6 25 -6 0 -8 5 -5 10 20
33 -105 250 -145 250 -5 0 -10 4 -10 8 0 10 -84 51 -115 57 -11 2 -20 4 -20 5
0 1 -13 4 -30 6 -16 3 -37 7 -45 11 -8 3 -24 7 -35 9 -24 3 -60 12 -60 14 0 1
-9 3 -20 5 -11 2 -36 7 -55 11 -19 3 -48 9 -65 12 -16 3 -46 6 -67 6 -20 0
-34 4 -32 8 2 4 -4 6 -13 6 -10 0 -36 2 -58 5 -22 4 -62 9 -90 12 -110 12
-150 17 -154 21 -2 2 -11 -2 -19 -9 -9 -6 -13 -7 -9 -1 4 7 -15 12 -61 13 -94
3 -482 7 -485 5z m606 -89 c-3 -9 -8 -14 -10 -11 -3 3 -2 9 2 15 9 16 15 13 8
-4z m-1593 -1589 c0 -2 -8 -10 -17 -17 -16 -13 -17 -12 -4 4 13 16 21 21 21
13z m1601 -1373 c13 -16 12 -17 -3 -4 -10 7 -18 15 -18 17 0 8 8 3 21 -13z"/>
<path d="M4430 8660 c-69 -19 -119 -58 -160 -124 -19 -32 -24 -55 -26 -115 -1
-42 1 -80 4 -86 4 -5 7 -12 8 -15 10 -54 81 -124 151 -150 92 -34 214 -6 280
66 89 98 80 285 -19 369 -55 47 -170 74 -238 55z"/>
<path d="M14355 8621 c-2 -4 -3 -177 -4 -385 0 -208 -1 -380 -3 -382 -2 -1
-24 17 -48 41 -25 24 -51 44 -57 45 -7 0 -13 4 -13 9 0 7 -103 58 -154 75 -63
21 -269 29 -346 12 -55 -11 -160 -57 -216 -92 -65 -42 -172 -148 -219 -219
-94 -143 -127 -263 -129 -475 -2 -273 66 -451 239 -624 105 -106 151 -138 270
-187 71 -29 247 -42 334 -25 95 20 205 81 282 157 40 38 59 52 60 40 0 -9 0
-53 0 -98 -1 -80 0 -83 21 -84 29 -1 410 -1 421 0 4 1 6 495 5 1099 l-3 1097
-218 1 c-120 0 -219 -2 -222 -5z m-268 -960 c104 -28 215 -146 254 -269 38
-121 31 -275 -17 -379 -41 -87 -102 -150 -189 -193 -55 -26 -68 -29 -150 -27
-74 2 -100 8 -146 30 -103 50 -183 150 -214 268 -18 66 -17 205 2 276 39 152
172 286 298 301 22 2 41 5 43 6 5 6 81 -3 119 -13z"/>
<path d="M8522 8499 c-9 -3 -23 -4 -29 -2 -8 3 -13 -4 -14 -18 0 -13 -1 -59
-2 -102 -1 -42 2 -77 6 -77 5 0 5 -5 2 -10 -6 -9 -10 -351 -5 -375 1 -5 2 -14
1 -20 -6 -32 -5 -275 1 -275 4 0 5 -6 2 -14 -8 -20 -10 -106 -2 -106 3 0 4 -8
2 -17 -8 -32 -9 -183 -2 -183 4 0 5 -6 2 -14 -8 -20 -10 -106 -2 -106 3 0 4
-8 2 -17 -8 -32 -9 -183 -2 -183 4 0 5 -6 2 -14 -8 -20 -10 -106 -2 -106 3 0
4 -8 2 -17 -8 -32 -9 -183 -2 -183 4 0 5 -6 2 -14 -7 -18 -10 -106 -4 -106 3
0 3 -25 2 -55 -2 -30 0 -55 5 -56 63 -6 1336 -2 1340 5 11 16 8 397 -2 405 -5
3 -204 6 -442 6 -381 -1 -432 1 -435 15 -2 8 -4 380 -3 827 l0 812 -203 3
c-112 2 -211 0 -220 -3z"/>
<path d="M4030 8043 c-89 -15 -246 -96 -322 -165 -72 -67 -67 -70 -66 36 0 52
-3 99 -6 104 -3 6 -94 9 -223 8 l-218 -1 -2 -797 c-2 -439 1 -798 5 -799 35
-4 402 -3 420 1 l23 5 3 410 c2 226 7 426 11 445 4 19 17 63 30 97 65 171 166
242 351 246 l84 2 1 35 c0 36 0 304 -1 353 0 24 -3 27 -32 26 -18 -1 -44 -4
-58 -6z"/>
<path d="M7210 8039 c-14 -4 -52 -15 -85 -24 -134 -38 -226 -95 -340 -209 -83
-83 -127 -149 -165 -246 -25 -62 -26 -66 -45 -170 -17 -88 -14 -290 5 -365 41
-165 103 -278 214 -387 43 -43 82 -78 86 -78 5 0 15 -7 24 -15 33 -33 176 -96
266 -116 139 -32 334 -31 455 3 22 6 45 12 50 13 25 6 125 52 183 86 68 39
172 120 169 131 -2 6 -118 136 -202 225 l-40 43 -39 -34 c-215 -189 -597 -151
-709 70 -14 27 -27 60 -28 74 l-4 25 572 1 c315 0 575 3 579 6 7 7 6 250 -1
327 -24 253 -179 467 -417 576 -31 14 -65 28 -75 30 -146 37 -196 44 -308 42
-66 -1 -131 -4 -145 -8z m218 -363 c82 -8 191 -74 232 -142 21 -32 53 -134 46
-141 -3 -3 -443 -5 -649 -3 -47 0 -47 0 -41 28 31 129 163 242 300 259 27 3
51 7 53 9 2 2 7 1 12 -1 4 -3 25 -7 47 -9z"/>
<path d="M10518 8045 c-1 -1 -24 -6 -49 -9 -105 -14 -324 -85 -341 -110 -4 -6
-8 -8 -8 -4 0 4 -21 -5 -47 -21 -87 -50 -123 -76 -123 -86 0 -5 39 -64 85
-130 47 -66 90 -127 96 -136 11 -16 14 -15 43 2 142 86 276 130 407 135 183 7
275 -57 294 -204 6 -52 6 -52 -22 -52 -15 0 -127 -2 -248 -4 -205 -4 -238 -6
-305 -22 -14 -3 -33 -8 -43 -10 -79 -15 -198 -78 -255 -134 -86 -85 -121 -183
-117 -331 3 -119 8 -138 50 -225 32 -65 95 -139 165 -192 28 -21 133 -72 159
-77 9 -1 36 -8 61 -15 49 -13 216 -18 266 -7 108 23 175 62 270 153 24 23 44
37 47 30 2 -6 3 -46 2 -88 -1 -43 1 -78 4 -79 34 -4 395 -2 403 2 10 6 13
1012 3 1104 -29 271 -189 443 -465 500 -35 8 -325 16 -332 10z m341 -934 c21
-2 9 -135 -17 -193 -27 -58 -90 -112 -156 -134 -59 -20 -162 -22 -223 -5 -107
30 -162 141 -117 237 35 74 127 100 350 98 82 -1 155 -2 163 -3z"/>
<path d="M12265 8039 c-105 -24 -235 -96 -302 -165 l-33 -34 -1 52 c0 29 -1
71 -1 94 l0 41 -224 0 -224 1 0 -242 c0 -132 0 -490 0 -795 -1 -304 2 -556 5
-559 7 -7 415 -8 427 -1 6 4 10 186 10 485 1 502 4 538 47 622 66 128 213 192
361 157 70 -16 139 -83 161 -158 6 -18 13 -41 16 -52 4 -11 8 -243 9 -515 2
-272 4 -504 4 -515 0 -19 7 -20 228 -20 l228 0 -1 545 c-1 483 -4 552 -19 609
-24 89 -45 139 -78 189 -15 24 -28 46 -28 49 0 3 -28 33 -63 67 -68 66 -156
115 -248 139 -64 16 -216 20 -274 6z"/>
<path d="M4284 8019 c-4 -7 -8 -1153 -5 -1529 l1 -65 203 2 c111 0 212 2 224
2 l22 1 -1 798 0 799 -219 0 c-121 1 -221 -3 -225 -8z"/>
<path d="M4896 8000 c-11 -4 7 -59 73 -225 48 -121 120 -303 161 -405 40 -102
128 -324 195 -495 68 -170 137 -346 154 -391 l31 -80 233 0 233 -1 83 211 c46
116 89 225 96 241 7 17 42 104 78 195 155 394 254 646 262 665 5 11 9 22 10
25 5 16 18 48 26 65 47 108 75 194 65 197 -6 2 -110 3 -231 3 l-220 -1 -32
-79 c-17 -44 -36 -91 -42 -105 -5 -14 -15 -38 -21 -55 -6 -16 -17 -43 -25 -60
-7 -16 -36 -88 -64 -160 -28 -71 -56 -143 -62 -160 -7 -16 -13 -32 -14 -35 -1
-3 -5 -14 -10 -25 -4 -11 -19 -47 -32 -80 -13 -33 -28 -69 -33 -80 -4 -11 -21
-53 -36 -93 -15 -39 -29 -71 -30 -69 -2 2 -26 61 -55 132 -28 72 -56 141 -62
155 -6 14 -11 27 -12 30 -1 3 -5 14 -10 25 -4 11 -51 128 -102 260 -52 132
-100 254 -107 270 -8 17 -21 51 -31 78 -10 26 -20 47 -24 48 -26 4 -435 3
-445 -1z"/>
<path d="M1753 4555 c0 -8 4 -12 9 -9 5 3 6 10 3 15 -9 13 -12 11 -12 -6z"/>
<path d="M784 4522 c4 -3 14 -7 22 -8 9 -1 13 0 10 4 -4 3 -14 7 -22 8 -9 1
-13 0 -10 -4z"/>
<path d="M1749 4443 c-13 -16 -12 -17 4 -4 16 13 21 21 13 21 -2 0 -10 -8 -17
-17z"/>
<path d="M2519 4418 c-5 -18 -6 -38 -1 -34 7 8 12 36 6 36 -2 0 -4 -1 -5 -2z"/>
<path d="M2630 4376 c0 -2 8 -10 18 -17 15 -13 16 -12 3 4 -13 16 -21 21 -21
13z"/>
<path d="M475 4329 c-4 -6 -5 -12 -2 -15 2 -3 7 2 10 11 7 17 1 20 -8 4z"/>
<path d="M2070 4336 c0 -2 8 -10 18 -17 15 -13 16 -12 3 4 -13 16 -21 21 -21
13z"/>
<path d="M1140 4326 c0 -2 8 -10 18 -17 15 -13 16 -12 3 4 -13 16 -21 21 -21
13z"/>
<path d="M300 4286 c0 -2 8 -10 18 -17 15 -13 16 -12 3 4 -13 16 -21 21 -21
13z"/>
<path d="M550 4276 c7 -7 13 -7 20 0 6 6 3 10 -10 10 -13 0 -16 -4 -10 -10z"/>
<path d="M1990 4276 c7 -7 13 -7 20 0 6 6 3 10 -10 10 -13 0 -16 -4 -10 -10z"/>
<path d="M1025 4200 c-3 -6 1 -7 9 -4 18 7 21 14 7 14 -6 0 -13 -4 -16 -10z"/>
<path d="M1394 4160 c0 -13 4 -16 10 -10 7 7 7 13 0 20 -6 6 -10 3 -10 -10z"/>
<path d="M1916 4167 c3 -10 9 -15 12 -12 3 3 0 11 -7 18 -10 9 -11 8 -5 -6z"/>
<path d="M1120 4160 c-9 -6 -10 -10 -3 -10 6 0 15 5 18 10 8 12 4 12 -15 0z"/>
<path d="M2199 4153 c-13 -16 -12 -17 4 -4 9 7 17 15 17 17 0 8 -8 3 -21 -13z"/>
<path d="M145 4119 c-3 -4 2 -6 10 -5 21 3 28 13 10 13 -9 0 -18 -4 -20 -8z"/>
<path d="M870 4116 c7 -7 13 -7 20 0 6 6 3 10 -10 10 -13 0 -16 -4 -10 -10z"/>
<path d="M1830 4116 c7 -7 13 -7 20 0 6 6 3 10 -10 10 -13 0 -16 -4 -10 -10z"/>
<path d="M2640 4120 c-9 -6 -10 -10 -3 -10 6 0 15 5 18 10 8 12 4 12 -15 0z"/>
<path d="M2905 4120 c-3 -6 1 -7 9 -4 18 7 21 14 7 14 -6 0 -13 -4 -16 -10z"/>
<path d="M2785 4080 c-3 -6 1 -7 9 -4 18 7 21 14 7 14 -6 0 -13 -4 -16 -10z"/>
<path d="M956 3958 c3 -5 10 -6 15 -3 13 9 11 12 -6 12 -8 0 -12 -4 -9 -9z"/>
<path d="M1196 3962 c-3 -5 1 -9 9 -9 8 0 12 4 9 9 -3 4 -7 8 -9 8 -2 0 -6 -4
-9 -8z"/>
</g>
</svg>
